<mxfile host="Electron" modified="2023-10-08T15:22:54.833Z" agent="Mozilla/5.0 (Windows NT 10.0; Win64; x64) AppleWebKit/537.36 (KHTML, like Gecko) draw.io/21.6.8 Chrome/114.0.5735.289 Electron/25.5.0 Safari/537.36" etag="UQXA9QbxLSVWy2NEPgeX" version="21.6.8" type="device">
  <diagram name="Pagina-1" id="wVuDzV6PTjjdAZot95Fx">
    <mxGraphModel dx="2801" dy="675" grid="1" gridSize="10" guides="1" tooltips="1" connect="1" arrows="1" fold="1" page="1" pageScale="1" pageWidth="1654" pageHeight="1169" math="0" shadow="0">
      <root>
        <mxCell id="0" />
        <mxCell id="1" parent="0" />
        <mxCell id="HglV9qDlDRLHziCRikBF-1" style="edgeStyle=orthogonalEdgeStyle;rounded=0;orthogonalLoop=1;jettySize=auto;html=1;endArrow=none;endFill=0;" parent="1" source="HglV9qDlDRLHziCRikBF-13" target="HglV9qDlDRLHziCRikBF-15" edge="1">
          <mxGeometry relative="1" as="geometry">
            <mxPoint x="630" y="414" as="targetPoint" />
          </mxGeometry>
        </mxCell>
        <mxCell id="HglV9qDlDRLHziCRikBF-2" style="edgeStyle=orthogonalEdgeStyle;rounded=0;orthogonalLoop=1;jettySize=auto;html=1;exitX=0.25;exitY=1;exitDx=0;exitDy=0;endArrow=none;endFill=0;" parent="1" source="HglV9qDlDRLHziCRikBF-13" target="HglV9qDlDRLHziCRikBF-31" edge="1">
          <mxGeometry relative="1" as="geometry">
            <mxPoint x="360" y="514" as="targetPoint" />
          </mxGeometry>
        </mxCell>
        <mxCell id="HglV9qDlDRLHziCRikBF-3" style="edgeStyle=orthogonalEdgeStyle;rounded=0;orthogonalLoop=1;jettySize=auto;html=1;endArrow=none;endFill=0;exitX=0.826;exitY=0.017;exitDx=0;exitDy=0;exitPerimeter=0;" parent="1" source="HglV9qDlDRLHziCRikBF-13" target="HglV9qDlDRLHziCRikBF-40" edge="1">
          <mxGeometry relative="1" as="geometry">
            <mxPoint x="482.5" y="324" as="targetPoint" />
          </mxGeometry>
        </mxCell>
        <mxCell id="HglV9qDlDRLHziCRikBF-4" value="" style="edgeStyle=orthogonalEdgeStyle;rounded=0;orthogonalLoop=1;jettySize=auto;html=1;endArrow=none;endFill=0;" parent="1" source="HglV9qDlDRLHziCRikBF-13" target="HglV9qDlDRLHziCRikBF-15" edge="1">
          <mxGeometry relative="1" as="geometry" />
        </mxCell>
        <mxCell id="HglV9qDlDRLHziCRikBF-5" style="edgeStyle=orthogonalEdgeStyle;rounded=0;orthogonalLoop=1;jettySize=auto;html=1;exitX=1;exitY=0.25;exitDx=0;exitDy=0;entryX=0;entryY=0.5;entryDx=0;entryDy=0;endArrow=none;endFill=0;" parent="1" source="HglV9qDlDRLHziCRikBF-13" target="HglV9qDlDRLHziCRikBF-67" edge="1">
          <mxGeometry relative="1" as="geometry">
            <mxPoint x="670" y="294" as="targetPoint" />
            <Array as="points">
              <mxPoint x="536" y="394" />
              <mxPoint x="611" y="394" />
              <mxPoint x="611" y="344" />
              <mxPoint x="690" y="344" />
            </Array>
          </mxGeometry>
        </mxCell>
        <mxCell id="HglV9qDlDRLHziCRikBF-6" style="edgeStyle=orthogonalEdgeStyle;rounded=0;orthogonalLoop=1;jettySize=auto;html=1;endArrow=oval;endFill=0;entryX=1;entryY=0.078;entryDx=0;entryDy=0;entryPerimeter=0;" parent="1" target="HglV9qDlDRLHziCRikBF-161" edge="1">
          <mxGeometry relative="1" as="geometry">
            <mxPoint x="391.25" y="402" as="targetPoint" />
            <mxPoint x="431.25" y="402.5" as="sourcePoint" />
            <Array as="points">
              <mxPoint x="431" y="404" />
              <mxPoint x="391" y="404" />
            </Array>
          </mxGeometry>
        </mxCell>
        <mxCell id="HglV9qDlDRLHziCRikBF-7" style="edgeStyle=orthogonalEdgeStyle;rounded=0;orthogonalLoop=1;jettySize=auto;html=1;endArrow=oval;endFill=0;exitX=0.001;exitY=0.583;exitDx=0;exitDy=0;exitPerimeter=0;" parent="1" source="HglV9qDlDRLHziCRikBF-13" target="HglV9qDlDRLHziCRikBF-161" edge="1">
          <mxGeometry relative="1" as="geometry">
            <mxPoint x="400" y="424" as="targetPoint" />
            <Array as="points">
              <mxPoint x="431" y="414" />
            </Array>
          </mxGeometry>
        </mxCell>
        <mxCell id="HglV9qDlDRLHziCRikBF-8" style="edgeStyle=orthogonalEdgeStyle;rounded=0;orthogonalLoop=1;jettySize=auto;html=1;exitX=-0.008;exitY=0.075;exitDx=0;exitDy=0;exitPerimeter=0;endArrow=oval;endFill=1;" parent="1" source="HglV9qDlDRLHziCRikBF-13" target="HglV9qDlDRLHziCRikBF-163" edge="1">
          <mxGeometry relative="1" as="geometry" />
        </mxCell>
        <mxCell id="HglV9qDlDRLHziCRikBF-9" style="edgeStyle=orthogonalEdgeStyle;rounded=0;orthogonalLoop=1;jettySize=auto;html=1;endArrow=oval;endFill=0;entryX=1.013;entryY=0.406;entryDx=0;entryDy=0;entryPerimeter=0;" parent="1" source="HglV9qDlDRLHziCRikBF-13" target="HglV9qDlDRLHziCRikBF-164" edge="1">
          <mxGeometry relative="1" as="geometry">
            <mxPoint x="410" y="434" as="targetPoint" />
            <Array as="points">
              <mxPoint x="420" y="434" />
            </Array>
          </mxGeometry>
        </mxCell>
        <mxCell id="HglV9qDlDRLHziCRikBF-10" style="edgeStyle=orthogonalEdgeStyle;rounded=0;orthogonalLoop=1;jettySize=auto;html=1;exitX=0.088;exitY=-0.011;exitDx=0;exitDy=0;exitPerimeter=0;endArrow=oval;endFill=0;" parent="1" source="HglV9qDlDRLHziCRikBF-13" edge="1">
          <mxGeometry relative="1" as="geometry">
            <mxPoint x="440" y="354" as="targetPoint" />
          </mxGeometry>
        </mxCell>
        <mxCell id="HglV9qDlDRLHziCRikBF-11" style="edgeStyle=orthogonalEdgeStyle;rounded=0;orthogonalLoop=1;jettySize=auto;html=1;exitX=0;exitY=1;exitDx=0;exitDy=0;endArrow=oval;endFill=0;" parent="1" source="HglV9qDlDRLHziCRikBF-13" edge="1">
          <mxGeometry relative="1" as="geometry">
            <mxPoint x="410" y="454" as="targetPoint" />
          </mxGeometry>
        </mxCell>
        <mxCell id="HglV9qDlDRLHziCRikBF-338" style="edgeStyle=orthogonalEdgeStyle;rounded=0;orthogonalLoop=1;jettySize=auto;html=1;endArrow=oval;endFill=1;" parent="1" source="HglV9qDlDRLHziCRikBF-13" edge="1">
          <mxGeometry relative="1" as="geometry">
            <mxPoint x="483.75" y="350" as="targetPoint" />
          </mxGeometry>
        </mxCell>
        <mxCell id="HglV9qDlDRLHziCRikBF-13" value="&lt;font style=&quot;font-size: 12px;&quot;&gt;Film&lt;/font&gt;" style="rounded=0;whiteSpace=wrap;html=1;fillColor=#fff2cc;strokeColor=#d6b656;" parent="1" vertex="1">
          <mxGeometry x="431.25" y="382" width="105" height="60" as="geometry" />
        </mxCell>
        <mxCell id="HglV9qDlDRLHziCRikBF-14" style="edgeStyle=orthogonalEdgeStyle;rounded=0;orthogonalLoop=1;jettySize=auto;html=1;endArrow=none;endFill=0;" parent="1" source="HglV9qDlDRLHziCRikBF-15" target="HglV9qDlDRLHziCRikBF-20" edge="1">
          <mxGeometry relative="1" as="geometry">
            <mxPoint x="830" y="414" as="targetPoint" />
          </mxGeometry>
        </mxCell>
        <mxCell id="HglV9qDlDRLHziCRikBF-15" value="Partecipazione" style="rhombus;whiteSpace=wrap;html=1;fillColor=#fff2cc;strokeColor=#d6b656;" parent="1" vertex="1">
          <mxGeometry x="600" y="376.5" width="90" height="75" as="geometry" />
        </mxCell>
        <mxCell id="HglV9qDlDRLHziCRikBF-16" style="edgeStyle=orthogonalEdgeStyle;rounded=0;orthogonalLoop=1;jettySize=auto;html=1;endArrow=none;endFill=0;" parent="1" source="HglV9qDlDRLHziCRikBF-20" target="HglV9qDlDRLHziCRikBF-29" edge="1">
          <mxGeometry relative="1" as="geometry">
            <mxPoint x="960" y="604" as="targetPoint" />
          </mxGeometry>
        </mxCell>
        <mxCell id="HglV9qDlDRLHziCRikBF-17" style="edgeStyle=orthogonalEdgeStyle;rounded=0;orthogonalLoop=1;jettySize=auto;html=1;endArrow=oval;endFill=1;" parent="1" source="HglV9qDlDRLHziCRikBF-20" edge="1">
          <mxGeometry relative="1" as="geometry">
            <mxPoint x="815" y="374" as="targetPoint" />
          </mxGeometry>
        </mxCell>
        <mxCell id="HglV9qDlDRLHziCRikBF-18" style="edgeStyle=orthogonalEdgeStyle;rounded=0;orthogonalLoop=1;jettySize=auto;html=1;endArrow=oval;endFill=0;exitX=1;exitY=0.25;exitDx=0;exitDy=0;" parent="1" source="HglV9qDlDRLHziCRikBF-20" edge="1">
          <mxGeometry relative="1" as="geometry">
            <mxPoint x="890" y="404" as="targetPoint" />
          </mxGeometry>
        </mxCell>
        <mxCell id="HglV9qDlDRLHziCRikBF-19" style="edgeStyle=orthogonalEdgeStyle;rounded=0;orthogonalLoop=1;jettySize=auto;html=1;endArrow=oval;endFill=0;" parent="1" source="HglV9qDlDRLHziCRikBF-20" edge="1">
          <mxGeometry relative="1" as="geometry">
            <mxPoint x="890" y="424" as="targetPoint" />
            <Array as="points">
              <mxPoint x="890" y="424" />
              <mxPoint x="890" y="424" />
            </Array>
          </mxGeometry>
        </mxCell>
        <mxCell id="HglV9qDlDRLHziCRikBF-20" value="Attori" style="rounded=0;whiteSpace=wrap;html=1;fillColor=#fff2cc;strokeColor=#d6b656;" parent="1" vertex="1">
          <mxGeometry x="770" y="394" width="90" height="40" as="geometry" />
        </mxCell>
        <mxCell id="HglV9qDlDRLHziCRikBF-21" style="edgeStyle=orthogonalEdgeStyle;rounded=0;orthogonalLoop=1;jettySize=auto;html=1;endArrow=oval;endFill=1;" parent="1" source="HglV9qDlDRLHziCRikBF-23" edge="1">
          <mxGeometry relative="1" as="geometry">
            <mxPoint x="450" y="704" as="targetPoint" />
            <Array as="points">
              <mxPoint x="450" y="694" />
              <mxPoint x="450" y="694" />
            </Array>
          </mxGeometry>
        </mxCell>
        <mxCell id="HglV9qDlDRLHziCRikBF-22" style="edgeStyle=orthogonalEdgeStyle;rounded=0;orthogonalLoop=1;jettySize=auto;html=1;endArrow=oval;endFill=0;" parent="1" source="HglV9qDlDRLHziCRikBF-23" edge="1">
          <mxGeometry relative="1" as="geometry">
            <mxPoint x="510" y="704" as="targetPoint" />
            <Array as="points">
              <mxPoint x="510" y="704" />
              <mxPoint x="510" y="704" />
            </Array>
          </mxGeometry>
        </mxCell>
        <mxCell id="HglV9qDlDRLHziCRikBF-23" value="Premio" style="rounded=0;whiteSpace=wrap;html=1;fillColor=#fff2cc;strokeColor=#d6b656;" parent="1" vertex="1">
          <mxGeometry x="437.5" y="634" width="90" height="40" as="geometry" />
        </mxCell>
        <mxCell id="HglV9qDlDRLHziCRikBF-24" style="edgeStyle=orthogonalEdgeStyle;rounded=0;orthogonalLoop=1;jettySize=auto;html=1;strokeColor=none;" parent="1" edge="1">
          <mxGeometry relative="1" as="geometry">
            <mxPoint x="470" y="984" as="targetPoint" />
            <mxPoint x="630" y="864" as="sourcePoint" />
          </mxGeometry>
        </mxCell>
        <mxCell id="HglV9qDlDRLHziCRikBF-25" style="edgeStyle=orthogonalEdgeStyle;rounded=0;orthogonalLoop=1;jettySize=auto;html=1;endArrow=none;endFill=0;" parent="1" source="HglV9qDlDRLHziCRikBF-27" target="HglV9qDlDRLHziCRikBF-23" edge="1">
          <mxGeometry relative="1" as="geometry" />
        </mxCell>
        <mxCell id="HglV9qDlDRLHziCRikBF-26" style="edgeStyle=orthogonalEdgeStyle;rounded=0;orthogonalLoop=1;jettySize=auto;html=1;entryX=0.5;entryY=1;entryDx=0;entryDy=0;endArrow=none;endFill=0;" parent="1" source="HglV9qDlDRLHziCRikBF-27" target="HglV9qDlDRLHziCRikBF-13" edge="1">
          <mxGeometry relative="1" as="geometry">
            <mxPoint x="480" y="424" as="targetPoint" />
          </mxGeometry>
        </mxCell>
        <mxCell id="HglV9qDlDRLHziCRikBF-27" value="Vinto" style="rhombus;whiteSpace=wrap;html=1;fillColor=#fff2cc;strokeColor=#d6b656;" parent="1" vertex="1">
          <mxGeometry x="441.25" y="504" width="82.5" height="60" as="geometry" />
        </mxCell>
        <mxCell id="HglV9qDlDRLHziCRikBF-28" style="edgeStyle=orthogonalEdgeStyle;rounded=0;orthogonalLoop=1;jettySize=auto;html=1;endArrow=none;endFill=0;" parent="1" source="HglV9qDlDRLHziCRikBF-29" target="HglV9qDlDRLHziCRikBF-23" edge="1">
          <mxGeometry relative="1" as="geometry" />
        </mxCell>
        <mxCell id="HglV9qDlDRLHziCRikBF-29" value="Premiazione Attore" style="rhombus;whiteSpace=wrap;html=1;fillColor=#fff2cc;strokeColor=#d6b656;" parent="1" vertex="1">
          <mxGeometry x="775" y="624" width="80" height="60" as="geometry" />
        </mxCell>
        <mxCell id="HglV9qDlDRLHziCRikBF-30" style="edgeStyle=orthogonalEdgeStyle;rounded=0;orthogonalLoop=1;jettySize=auto;html=1;endArrow=none;endFill=0;" parent="1" source="HglV9qDlDRLHziCRikBF-31" target="HglV9qDlDRLHziCRikBF-36" edge="1">
          <mxGeometry relative="1" as="geometry">
            <mxPoint x="360" y="614" as="targetPoint" />
          </mxGeometry>
        </mxCell>
        <mxCell id="HglV9qDlDRLHziCRikBF-31" value="Direzione" style="rhombus;whiteSpace=wrap;html=1;fillColor=#fff2cc;strokeColor=#d6b656;" parent="1" vertex="1">
          <mxGeometry x="320" y="504" width="80" height="60" as="geometry" />
        </mxCell>
        <mxCell id="HglV9qDlDRLHziCRikBF-32" style="edgeStyle=orthogonalEdgeStyle;rounded=0;orthogonalLoop=1;jettySize=auto;html=1;endArrow=none;endFill=0;" parent="1" source="HglV9qDlDRLHziCRikBF-36" target="HglV9qDlDRLHziCRikBF-38" edge="1">
          <mxGeometry relative="1" as="geometry">
            <mxPoint x="360" y="654" as="targetPoint" />
          </mxGeometry>
        </mxCell>
        <mxCell id="HglV9qDlDRLHziCRikBF-33" style="edgeStyle=orthogonalEdgeStyle;rounded=0;orthogonalLoop=1;jettySize=auto;html=1;endArrow=oval;endFill=1;" parent="1" source="HglV9qDlDRLHziCRikBF-36" edge="1">
          <mxGeometry relative="1" as="geometry">
            <mxPoint x="255" y="694" as="targetPoint" />
          </mxGeometry>
        </mxCell>
        <mxCell id="HglV9qDlDRLHziCRikBF-34" style="edgeStyle=orthogonalEdgeStyle;rounded=0;orthogonalLoop=1;jettySize=auto;html=1;endArrow=oval;endFill=0;exitX=0;exitY=0.75;exitDx=0;exitDy=0;" parent="1" source="HglV9qDlDRLHziCRikBF-36" edge="1">
          <mxGeometry relative="1" as="geometry">
            <mxPoint x="190" y="664" as="targetPoint" />
            <Array as="points" />
          </mxGeometry>
        </mxCell>
        <mxCell id="HglV9qDlDRLHziCRikBF-35" style="edgeStyle=orthogonalEdgeStyle;rounded=0;orthogonalLoop=1;jettySize=auto;html=1;exitX=0;exitY=0.25;exitDx=0;exitDy=0;endArrow=oval;endFill=0;" parent="1" source="HglV9qDlDRLHziCRikBF-36" edge="1">
          <mxGeometry relative="1" as="geometry">
            <mxPoint x="190" y="644" as="targetPoint" />
            <Array as="points">
              <mxPoint x="190" y="644" />
              <mxPoint x="190" y="644" />
            </Array>
          </mxGeometry>
        </mxCell>
        <mxCell id="HglV9qDlDRLHziCRikBF-36" value="Regista" style="rounded=0;whiteSpace=wrap;html=1;fillColor=#fff2cc;strokeColor=#d6b656;" parent="1" vertex="1">
          <mxGeometry x="210" y="634" width="90" height="40" as="geometry" />
        </mxCell>
        <mxCell id="HglV9qDlDRLHziCRikBF-37" style="edgeStyle=orthogonalEdgeStyle;rounded=0;orthogonalLoop=1;jettySize=auto;html=1;endArrow=none;endFill=0;" parent="1" source="HglV9qDlDRLHziCRikBF-38" target="HglV9qDlDRLHziCRikBF-23" edge="1">
          <mxGeometry relative="1" as="geometry" />
        </mxCell>
        <mxCell id="HglV9qDlDRLHziCRikBF-38" value="Premiazione Regista" style="rhombus;whiteSpace=wrap;html=1;fillColor=#fff2cc;strokeColor=#d6b656;" parent="1" vertex="1">
          <mxGeometry x="320" y="619" width="90" height="70" as="geometry" />
        </mxCell>
        <mxCell id="HglV9qDlDRLHziCRikBF-39" style="edgeStyle=orthogonalEdgeStyle;rounded=0;orthogonalLoop=1;jettySize=auto;html=1;endArrow=none;endFill=0;" parent="1" source="HglV9qDlDRLHziCRikBF-40" target="HglV9qDlDRLHziCRikBF-47" edge="1">
          <mxGeometry relative="1" as="geometry">
            <mxPoint x="483.75" y="214" as="targetPoint" />
          </mxGeometry>
        </mxCell>
        <mxCell id="HglV9qDlDRLHziCRikBF-40" value="Codifica" style="rhombus;whiteSpace=wrap;html=1;fillColor=#d5e8d4;strokeColor=#82b366;" parent="1" vertex="1">
          <mxGeometry x="475" y="259" width="87.5" height="60" as="geometry" />
        </mxCell>
        <mxCell id="HglV9qDlDRLHziCRikBF-41" style="edgeStyle=orthogonalEdgeStyle;rounded=0;orthogonalLoop=1;jettySize=auto;html=1;endArrow=oval;endFill=1;exitX=0.413;exitY=-0.018;exitDx=0;exitDy=0;exitPerimeter=0;entryX=0.538;entryY=1.056;entryDx=0;entryDy=0;entryPerimeter=0;" parent="1" source="HglV9qDlDRLHziCRikBF-47" target="HglV9qDlDRLHziCRikBF-243" edge="1">
          <mxGeometry relative="1" as="geometry">
            <mxPoint x="492.1900000000005" y="92" as="targetPoint" />
          </mxGeometry>
        </mxCell>
        <mxCell id="HglV9qDlDRLHziCRikBF-42" style="edgeStyle=orthogonalEdgeStyle;rounded=0;orthogonalLoop=1;jettySize=auto;html=1;exitX=0.667;exitY=0.034;exitDx=0;exitDy=0;exitPerimeter=0;endArrow=oval;endFill=0;entryX=0.357;entryY=0.986;entryDx=0;entryDy=0;entryPerimeter=0;" parent="1" source="HglV9qDlDRLHziCRikBF-47" target="HglV9qDlDRLHziCRikBF-244" edge="1">
          <mxGeometry relative="1" as="geometry">
            <mxPoint x="538" y="92" as="targetPoint" />
          </mxGeometry>
        </mxCell>
        <mxCell id="HglV9qDlDRLHziCRikBF-43" style="edgeStyle=orthogonalEdgeStyle;rounded=0;orthogonalLoop=1;jettySize=auto;html=1;exitX=0.806;exitY=1.014;exitDx=0;exitDy=0;exitPerimeter=0;endArrow=oval;endFill=0;entryX=0.314;entryY=0.104;entryDx=0;entryDy=0;entryPerimeter=0;" parent="1" source="HglV9qDlDRLHziCRikBF-47" target="HglV9qDlDRLHziCRikBF-245" edge="1">
          <mxGeometry relative="1" as="geometry">
            <mxPoint x="610" y="140.00000000000006" as="targetPoint" />
          </mxGeometry>
        </mxCell>
        <mxCell id="HglV9qDlDRLHziCRikBF-44" style="edgeStyle=orthogonalEdgeStyle;rounded=0;orthogonalLoop=1;jettySize=auto;html=1;endArrow=none;endFill=0;" parent="1" source="HglV9qDlDRLHziCRikBF-47" target="HglV9qDlDRLHziCRikBF-247" edge="1">
          <mxGeometry relative="1" as="geometry">
            <mxPoint x="622" y="140.00000000000006" as="targetPoint" />
            <Array as="points">
              <mxPoint x="600" y="140" />
              <mxPoint x="600" y="134" />
            </Array>
          </mxGeometry>
        </mxCell>
        <mxCell id="HglV9qDlDRLHziCRikBF-45" style="edgeStyle=orthogonalEdgeStyle;rounded=0;orthogonalLoop=1;jettySize=auto;html=1;endArrow=none;endFill=0;" parent="1" source="HglV9qDlDRLHziCRikBF-47" edge="1">
          <mxGeometry relative="1" as="geometry">
            <mxPoint x="634" y="188" as="targetPoint" />
          </mxGeometry>
        </mxCell>
        <mxCell id="HglV9qDlDRLHziCRikBF-331" style="edgeStyle=orthogonalEdgeStyle;rounded=0;orthogonalLoop=1;jettySize=auto;html=1;exitX=0.797;exitY=-0.011;exitDx=0;exitDy=0;exitPerimeter=0;endArrow=oval;endFill=0;" parent="1" source="HglV9qDlDRLHziCRikBF-47" edge="1">
          <mxGeometry relative="1" as="geometry">
            <mxPoint x="700" y="70" as="targetPoint" />
          </mxGeometry>
        </mxCell>
        <mxCell id="HglV9qDlDRLHziCRikBF-344" style="edgeStyle=orthogonalEdgeStyle;rounded=0;orthogonalLoop=1;jettySize=auto;html=1;entryX=1;entryY=0.5;entryDx=0;entryDy=0;endArrow=none;endFill=0;" parent="1" source="HglV9qDlDRLHziCRikBF-47" target="HglV9qDlDRLHziCRikBF-221" edge="1">
          <mxGeometry relative="1" as="geometry" />
        </mxCell>
        <mxCell id="Rr8nrI_Sg17zaG7XF54k-16" style="edgeStyle=orthogonalEdgeStyle;rounded=0;orthogonalLoop=1;jettySize=auto;html=1;exitX=0.165;exitY=-0.016;exitDx=0;exitDy=0;exitPerimeter=0;entryX=1;entryY=0.5;entryDx=0;entryDy=0;endArrow=none;endFill=0;" parent="1" source="HglV9qDlDRLHziCRikBF-47" target="Rr8nrI_Sg17zaG7XF54k-18" edge="1">
          <mxGeometry relative="1" as="geometry">
            <mxPoint x="310" y="50" as="targetPoint" />
            <Array as="points">
              <mxPoint x="444" y="45" />
            </Array>
          </mxGeometry>
        </mxCell>
        <mxCell id="HglV9qDlDRLHziCRikBF-47" value="Film Codificato" style="rounded=0;whiteSpace=wrap;html=1;fillColor=#d5e8d4;strokeColor=#82b366;" parent="1" vertex="1">
          <mxGeometry x="420" y="129" width="144.38" height="63.75" as="geometry" />
        </mxCell>
        <mxCell id="HglV9qDlDRLHziCRikBF-348" style="edgeStyle=orthogonalEdgeStyle;rounded=0;orthogonalLoop=1;jettySize=auto;html=1;entryX=0.621;entryY=-0.052;entryDx=0;entryDy=0;entryPerimeter=0;endArrow=oval;endFill=0;" parent="1" source="HglV9qDlDRLHziCRikBF-57" edge="1">
          <mxGeometry relative="1" as="geometry">
            <mxPoint x="166.28399999999965" y="270.75199999999995" as="targetPoint" />
          </mxGeometry>
        </mxCell>
        <mxCell id="Rr8nrI_Sg17zaG7XF54k-10" style="edgeStyle=orthogonalEdgeStyle;rounded=0;orthogonalLoop=1;jettySize=auto;html=1;endArrow=oval;endFill=0;" parent="1" source="HglV9qDlDRLHziCRikBF-57" edge="1">
          <mxGeometry relative="1" as="geometry">
            <mxPoint x="80" y="235.40499999999997" as="targetPoint" />
            <Array as="points">
              <mxPoint x="100" y="235" />
              <mxPoint x="100" y="235" />
            </Array>
          </mxGeometry>
        </mxCell>
        <mxCell id="Rr8nrI_Sg17zaG7XF54k-12" style="edgeStyle=orthogonalEdgeStyle;rounded=0;orthogonalLoop=1;jettySize=auto;html=1;endArrow=oval;endFill=1;" parent="1" source="HglV9qDlDRLHziCRikBF-57" edge="1">
          <mxGeometry relative="1" as="geometry">
            <mxPoint x="250" y="235.40499999999997" as="targetPoint" />
          </mxGeometry>
        </mxCell>
        <mxCell id="v24EFPV0wYHPeH2oUftJ-5" style="edgeStyle=orthogonalEdgeStyle;rounded=0;orthogonalLoop=1;jettySize=auto;html=1;exitX=0.061;exitY=1.028;exitDx=0;exitDy=0;exitPerimeter=0;endArrow=oval;endFill=0;" edge="1" parent="1" source="HglV9qDlDRLHziCRikBF-57">
          <mxGeometry relative="1" as="geometry">
            <mxPoint x="110" y="280" as="targetPoint" />
          </mxGeometry>
        </mxCell>
        <mxCell id="HglV9qDlDRLHziCRikBF-57" value="Formato" style="rounded=0;whiteSpace=wrap;html=1;fillColor=#d5e8d4;strokeColor=#82b366;" parent="1" vertex="1">
          <mxGeometry x="113.12" y="219" width="110" height="32.81" as="geometry" />
        </mxCell>
        <mxCell id="HglV9qDlDRLHziCRikBF-58" value="Partecipazione" style="rhombus;whiteSpace=wrap;html=1;fillColor=#fff2cc;strokeColor=#d6b656;" parent="1" vertex="1">
          <mxGeometry x="600" y="376.5" width="90" height="75" as="geometry" />
        </mxCell>
        <mxCell id="HglV9qDlDRLHziCRikBF-59" style="edgeStyle=orthogonalEdgeStyle;rounded=0;orthogonalLoop=1;jettySize=auto;html=1;endArrow=none;endFill=0;" parent="1" source="HglV9qDlDRLHziCRikBF-65" target="HglV9qDlDRLHziCRikBF-84" edge="1">
          <mxGeometry relative="1" as="geometry">
            <mxPoint x="1160" y="309" as="targetPoint" />
          </mxGeometry>
        </mxCell>
        <mxCell id="HglV9qDlDRLHziCRikBF-60" value="" style="edgeStyle=orthogonalEdgeStyle;rounded=0;orthogonalLoop=1;jettySize=auto;html=1;endArrow=none;endFill=0;" parent="1" source="HglV9qDlDRLHziCRikBF-65" target="HglV9qDlDRLHziCRikBF-96" edge="1">
          <mxGeometry relative="1" as="geometry" />
        </mxCell>
        <mxCell id="HglV9qDlDRLHziCRikBF-61" style="edgeStyle=orthogonalEdgeStyle;rounded=0;orthogonalLoop=1;jettySize=auto;html=1;exitX=0.658;exitY=0.013;exitDx=0;exitDy=0;exitPerimeter=0;endArrow=oval;endFill=1;" parent="1" source="HglV9qDlDRLHziCRikBF-65" edge="1">
          <mxGeometry relative="1" as="geometry">
            <mxPoint x="1060" y="234" as="targetPoint" />
            <Array as="points">
              <mxPoint x="1060" y="265" />
              <mxPoint x="1060" y="234" />
            </Array>
          </mxGeometry>
        </mxCell>
        <mxCell id="HglV9qDlDRLHziCRikBF-62" style="edgeStyle=orthogonalEdgeStyle;rounded=0;orthogonalLoop=1;jettySize=auto;html=1;endArrow=none;endFill=0;" parent="1" target="HglV9qDlDRLHziCRikBF-180" edge="1">
          <mxGeometry relative="1" as="geometry">
            <mxPoint x="1000" y="204" as="targetPoint" />
            <mxPoint x="1000" y="264" as="sourcePoint" />
            <Array as="points">
              <mxPoint x="1001" y="264" />
            </Array>
          </mxGeometry>
        </mxCell>
        <mxCell id="HglV9qDlDRLHziCRikBF-63" style="edgeStyle=orthogonalEdgeStyle;rounded=0;orthogonalLoop=1;jettySize=auto;html=1;entryX=0.5;entryY=0;entryDx=0;entryDy=0;endArrow=none;endFill=0;" parent="1" source="HglV9qDlDRLHziCRikBF-87" target="HglV9qDlDRLHziCRikBF-94" edge="1">
          <mxGeometry relative="1" as="geometry">
            <mxPoint x="1280" y="444" as="targetPoint" />
          </mxGeometry>
        </mxCell>
        <mxCell id="HglV9qDlDRLHziCRikBF-64" style="edgeStyle=orthogonalEdgeStyle;rounded=0;orthogonalLoop=1;jettySize=auto;html=1;" parent="1" source="HglV9qDlDRLHziCRikBF-65" edge="1">
          <mxGeometry relative="1" as="geometry">
            <mxPoint x="862" y="260" as="targetPoint" />
          </mxGeometry>
        </mxCell>
        <mxCell id="HglV9qDlDRLHziCRikBF-65" value="Utente" style="rounded=0;whiteSpace=wrap;html=1;fillColor=#f8cecc;strokeColor=#b85450;" parent="1" vertex="1">
          <mxGeometry x="970" y="265" width="140" height="65" as="geometry" />
        </mxCell>
        <mxCell id="HglV9qDlDRLHziCRikBF-66" style="edgeStyle=orthogonalEdgeStyle;rounded=0;orthogonalLoop=1;jettySize=auto;html=1;endArrow=none;endFill=0;entryX=0;entryY=0.75;entryDx=0;entryDy=0;" parent="1" source="HglV9qDlDRLHziCRikBF-67" target="HglV9qDlDRLHziCRikBF-65" edge="1">
          <mxGeometry relative="1" as="geometry" />
        </mxCell>
        <mxCell id="v24EFPV0wYHPeH2oUftJ-3" style="edgeStyle=orthogonalEdgeStyle;rounded=0;orthogonalLoop=1;jettySize=auto;html=1;exitX=0.297;exitY=0.19;exitDx=0;exitDy=0;exitPerimeter=0;endArrow=oval;endFill=0;" edge="1" parent="1" source="HglV9qDlDRLHziCRikBF-67">
          <mxGeometry relative="1" as="geometry">
            <mxPoint x="670" y="322" as="targetPoint" />
          </mxGeometry>
        </mxCell>
        <mxCell id="HglV9qDlDRLHziCRikBF-67" value="Recensione Utente" style="rhombus;whiteSpace=wrap;html=1;fillColor=#f8cecc;strokeColor=#b85450;" parent="1" vertex="1">
          <mxGeometry x="690" y="309" width="100" height="70" as="geometry" />
        </mxCell>
        <mxCell id="HglV9qDlDRLHziCRikBF-68" style="edgeStyle=orthogonalEdgeStyle;rounded=0;orthogonalLoop=1;jettySize=auto;html=1;endArrow=none;endFill=0;" parent="1" source="HglV9qDlDRLHziCRikBF-79" target="HglV9qDlDRLHziCRikBF-82" edge="1">
          <mxGeometry relative="1" as="geometry">
            <mxPoint x="1280" y="224" as="targetPoint" />
          </mxGeometry>
        </mxCell>
        <mxCell id="HglV9qDlDRLHziCRikBF-69" style="edgeStyle=orthogonalEdgeStyle;rounded=0;orthogonalLoop=1;jettySize=auto;html=1;endArrow=oval;endFill=0;exitX=1.009;exitY=0.087;exitDx=0;exitDy=0;exitPerimeter=0;entryX=0.01;entryY=0.52;entryDx=0;entryDy=0;entryPerimeter=0;" parent="1" source="HglV9qDlDRLHziCRikBF-79" target="HglV9qDlDRLHziCRikBF-192" edge="1">
          <mxGeometry relative="1" as="geometry">
            <mxPoint x="1484" y="167.5" as="targetPoint" />
            <Array as="points">
              <mxPoint x="1484" y="142.5" />
              <mxPoint x="1515" y="143.5" />
            </Array>
          </mxGeometry>
        </mxCell>
        <mxCell id="HglV9qDlDRLHziCRikBF-70" style="edgeStyle=orthogonalEdgeStyle;rounded=0;orthogonalLoop=1;jettySize=auto;html=1;endArrow=oval;endFill=0;entryX=-0.011;entryY=0.48;entryDx=0;entryDy=0;entryPerimeter=0;" parent="1" target="HglV9qDlDRLHziCRikBF-193" edge="1">
          <mxGeometry relative="1" as="geometry">
            <mxPoint x="1564" y="157.25" as="targetPoint" />
            <mxPoint x="1474" y="159.25" as="sourcePoint" />
            <Array as="points">
              <mxPoint x="1484" y="159.5" />
            </Array>
          </mxGeometry>
        </mxCell>
        <mxCell id="HglV9qDlDRLHziCRikBF-71" style="edgeStyle=orthogonalEdgeStyle;rounded=0;orthogonalLoop=1;jettySize=auto;html=1;exitX=1.004;exitY=0.922;exitDx=0;exitDy=0;exitPerimeter=0;endArrow=oval;endFill=0;entryX=-0.011;entryY=0.6;entryDx=0;entryDy=0;entryPerimeter=0;" parent="1" source="HglV9qDlDRLHziCRikBF-79" target="HglV9qDlDRLHziCRikBF-194" edge="1">
          <mxGeometry relative="1" as="geometry">
            <mxPoint x="1444" y="127.5" as="targetPoint" />
          </mxGeometry>
        </mxCell>
        <mxCell id="HglV9qDlDRLHziCRikBF-72" style="edgeStyle=orthogonalEdgeStyle;rounded=0;orthogonalLoop=1;jettySize=auto;html=1;exitX=0.178;exitY=1.004;exitDx=0;exitDy=0;exitPerimeter=0;endArrow=oval;endFill=1;" parent="1" source="HglV9qDlDRLHziCRikBF-79" target="HglV9qDlDRLHziCRikBF-190" edge="1">
          <mxGeometry relative="1" as="geometry">
            <mxPoint x="1337.0600000000002" y="198.00000000000003" as="sourcePoint" />
          </mxGeometry>
        </mxCell>
        <mxCell id="HglV9qDlDRLHziCRikBF-74" style="edgeStyle=orthogonalEdgeStyle;rounded=0;orthogonalLoop=1;jettySize=auto;html=1;exitX=0.991;exitY=0.713;exitDx=0;exitDy=0;exitPerimeter=0;endArrow=oval;endFill=0;entryX=-0.008;entryY=0.553;entryDx=0;entryDy=0;entryPerimeter=0;" parent="1" source="HglV9qDlDRLHziCRikBF-79" target="HglV9qDlDRLHziCRikBF-197" edge="1">
          <mxGeometry relative="1" as="geometry">
            <mxPoint x="1514" y="187.5" as="targetPoint" />
            <Array as="points">
              <mxPoint x="1513" y="180.5" />
            </Array>
          </mxGeometry>
        </mxCell>
        <mxCell id="HglV9qDlDRLHziCRikBF-333" style="edgeStyle=orthogonalEdgeStyle;rounded=0;orthogonalLoop=1;jettySize=auto;html=1;exitX=0.051;exitY=-0.003;exitDx=0;exitDy=0;exitPerimeter=0;endArrow=none;endFill=0;entryX=1;entryY=0.5;entryDx=0;entryDy=0;" parent="1" source="HglV9qDlDRLHziCRikBF-79" target="Rr8nrI_Sg17zaG7XF54k-20" edge="1">
          <mxGeometry relative="1" as="geometry">
            <mxPoint x="1350" y="110" as="targetPoint" />
          </mxGeometry>
        </mxCell>
        <mxCell id="HglV9qDlDRLHziCRikBF-335" style="edgeStyle=orthogonalEdgeStyle;rounded=0;orthogonalLoop=1;jettySize=auto;html=1;exitX=0.626;exitY=1.002;exitDx=0;exitDy=0;exitPerimeter=0;endArrow=oval;endFill=0;" parent="1" edge="1">
          <mxGeometry relative="1" as="geometry">
            <mxPoint x="1408.36" y="219.9" as="targetPoint" />
            <mxPoint x="1409.9999999999998" y="197.52000000000007" as="sourcePoint" />
          </mxGeometry>
        </mxCell>
        <mxCell id="lfYiuPxnH6zkKHB_Wp7k-3" style="edgeStyle=orthogonalEdgeStyle;rounded=0;orthogonalLoop=1;jettySize=auto;html=1;entryX=1.045;entryY=0.559;entryDx=0;entryDy=0;entryPerimeter=0;exitX=-0.007;exitY=0.957;exitDx=0;exitDy=0;exitPerimeter=0;endArrow=oval;endFill=0;" parent="1" source="HglV9qDlDRLHziCRikBF-79" target="HglV9qDlDRLHziCRikBF-196" edge="1">
          <mxGeometry relative="1" as="geometry" />
        </mxCell>
        <mxCell id="HglV9qDlDRLHziCRikBF-79" value="Abbonamento" style="rounded=0;whiteSpace=wrap;html=1;fillColor=#f8cecc;strokeColor=#b85450;" parent="1" vertex="1">
          <mxGeometry x="1334" y="137.5" width="140" height="60" as="geometry" />
        </mxCell>
        <mxCell id="HglV9qDlDRLHziCRikBF-80" style="edgeStyle=orthogonalEdgeStyle;rounded=0;orthogonalLoop=1;jettySize=auto;html=1;entryX=0.75;entryY=0;entryDx=0;entryDy=0;endArrow=none;endFill=0;" parent="1" source="HglV9qDlDRLHziCRikBF-82" target="HglV9qDlDRLHziCRikBF-65" edge="1">
          <mxGeometry relative="1" as="geometry" />
        </mxCell>
        <mxCell id="HglV9qDlDRLHziCRikBF-81" style="edgeStyle=orthogonalEdgeStyle;rounded=0;orthogonalLoop=1;jettySize=auto;html=1;endArrow=oval;endFill=0;" parent="1" source="HglV9qDlDRLHziCRikBF-82" target="HglV9qDlDRLHziCRikBF-201" edge="1">
          <mxGeometry relative="1" as="geometry">
            <mxPoint x="1280" y="164" as="targetPoint" />
          </mxGeometry>
        </mxCell>
        <mxCell id="HglV9qDlDRLHziCRikBF-82" value="Acquisto" style="rhombus;whiteSpace=wrap;html=1;fillColor=#f8cecc;strokeColor=#b85450;" parent="1" vertex="1">
          <mxGeometry x="1160" y="140" width="80" height="67" as="geometry" />
        </mxCell>
        <mxCell id="HglV9qDlDRLHziCRikBF-83" style="edgeStyle=orthogonalEdgeStyle;rounded=0;orthogonalLoop=1;jettySize=auto;html=1;endArrow=none;endFill=0;" parent="1" source="HglV9qDlDRLHziCRikBF-84" target="HglV9qDlDRLHziCRikBF-87" edge="1">
          <mxGeometry relative="1" as="geometry">
            <mxPoint x="1280" y="309" as="targetPoint" />
          </mxGeometry>
        </mxCell>
        <mxCell id="HglV9qDlDRLHziCRikBF-84" value="Possesso" style="rhombus;whiteSpace=wrap;html=1;fillColor=#f8cecc;strokeColor=#b85450;" parent="1" vertex="1">
          <mxGeometry x="1140" y="265.25" width="90" height="62.5" as="geometry" />
        </mxCell>
        <mxCell id="HglV9qDlDRLHziCRikBF-85" style="edgeStyle=orthogonalEdgeStyle;rounded=0;orthogonalLoop=1;jettySize=auto;html=1;exitX=0.195;exitY=0.172;exitDx=0;exitDy=0;exitPerimeter=0;endArrow=oval;endFill=1;" parent="1" source="HglV9qDlDRLHziCRikBF-87" target="HglV9qDlDRLHziCRikBF-209" edge="1">
          <mxGeometry relative="1" as="geometry">
            <mxPoint x="1294" y="272" as="sourcePoint" />
            <Array as="points">
              <mxPoint x="1296" y="284" />
            </Array>
          </mxGeometry>
        </mxCell>
        <mxCell id="HglV9qDlDRLHziCRikBF-86" style="edgeStyle=orthogonalEdgeStyle;rounded=0;orthogonalLoop=1;jettySize=auto;html=1;endArrow=oval;endFill=0;entryX=0.619;entryY=0.208;entryDx=0;entryDy=0;entryPerimeter=0;exitX=0;exitY=1;exitDx=0;exitDy=0;" parent="1" source="HglV9qDlDRLHziCRikBF-87" target="HglV9qDlDRLHziCRikBF-210" edge="1">
          <mxGeometry relative="1" as="geometry">
            <mxPoint x="1411" y="281.66999999999996" as="targetPoint" />
            <mxPoint x="1375" y="281.66999999999996" as="sourcePoint" />
          </mxGeometry>
        </mxCell>
        <mxCell id="HglV9qDlDRLHziCRikBF-87" value="Dati Fatturazione" style="rounded=0;whiteSpace=wrap;html=1;fillColor=#f8cecc;strokeColor=#b85450;" parent="1" vertex="1">
          <mxGeometry x="1275" y="277.75" width="100" height="36.25" as="geometry" />
        </mxCell>
        <mxCell id="HglV9qDlDRLHziCRikBF-88" style="edgeStyle=orthogonalEdgeStyle;rounded=0;orthogonalLoop=1;jettySize=auto;html=1;endArrow=oval;endFill=0;" parent="1" source="HglV9qDlDRLHziCRikBF-91" edge="1">
          <mxGeometry relative="1" as="geometry">
            <mxPoint x="1580" y="454" as="targetPoint" />
            <Array as="points">
              <mxPoint x="1570" y="454" />
              <mxPoint x="1570" y="454" />
            </Array>
          </mxGeometry>
        </mxCell>
        <mxCell id="HglV9qDlDRLHziCRikBF-89" style="edgeStyle=orthogonalEdgeStyle;rounded=0;orthogonalLoop=1;jettySize=auto;html=1;endArrow=oval;endFill=0;entryX=0.363;entryY=0.033;entryDx=0;entryDy=0;entryPerimeter=0;" parent="1" source="HglV9qDlDRLHziCRikBF-91" target="HglV9qDlDRLHziCRikBF-202" edge="1">
          <mxGeometry relative="1" as="geometry">
            <mxPoint x="1490" y="494" as="targetPoint" />
            <Array as="points">
              <mxPoint x="1460" y="494" />
              <mxPoint x="1459" y="494" />
            </Array>
          </mxGeometry>
        </mxCell>
        <mxCell id="HglV9qDlDRLHziCRikBF-90" style="edgeStyle=orthogonalEdgeStyle;rounded=0;orthogonalLoop=1;jettySize=auto;html=1;endArrow=none;endFill=0;" parent="1" source="HglV9qDlDRLHziCRikBF-91" edge="1">
          <mxGeometry relative="1" as="geometry">
            <mxPoint x="1234" y="444" as="targetPoint" />
          </mxGeometry>
        </mxCell>
        <mxCell id="v24EFPV0wYHPeH2oUftJ-1" style="edgeStyle=orthogonalEdgeStyle;rounded=0;orthogonalLoop=1;jettySize=auto;html=1;endArrow=oval;endFill=1;" edge="1" parent="1" source="HglV9qDlDRLHziCRikBF-91">
          <mxGeometry relative="1" as="geometry">
            <mxPoint x="1490" y="390" as="targetPoint" />
          </mxGeometry>
        </mxCell>
        <mxCell id="HglV9qDlDRLHziCRikBF-91" value="Fattura" style="rounded=0;whiteSpace=wrap;html=1;fillColor=#f8cecc;strokeColor=#b85450;" parent="1" vertex="1">
          <mxGeometry x="1435" y="424" width="110" height="40" as="geometry" />
        </mxCell>
        <mxCell id="HglV9qDlDRLHziCRikBF-92" style="edgeStyle=orthogonalEdgeStyle;rounded=0;orthogonalLoop=1;jettySize=auto;html=1;endArrow=none;endFill=0;entryX=0.161;entryY=0.018;entryDx=0;entryDy=0;entryPerimeter=0;" parent="1" source="HglV9qDlDRLHziCRikBF-94" target="HglV9qDlDRLHziCRikBF-91" edge="1">
          <mxGeometry relative="1" as="geometry" />
        </mxCell>
        <mxCell id="HglV9qDlDRLHziCRikBF-93" style="edgeStyle=orthogonalEdgeStyle;rounded=0;orthogonalLoop=1;jettySize=auto;html=1;endArrow=oval;endFill=0;" parent="1" source="HglV9qDlDRLHziCRikBF-94" edge="1">
          <mxGeometry relative="1" as="geometry">
            <mxPoint x="1325" y="416" as="targetPoint" />
          </mxGeometry>
        </mxCell>
        <mxCell id="HglV9qDlDRLHziCRikBF-94" value="Pagamento" style="rhombus;whiteSpace=wrap;html=1;fillColor=#f8cecc;strokeColor=#b85450;" parent="1" vertex="1">
          <mxGeometry x="1280" y="344" width="90" height="60" as="geometry" />
        </mxCell>
        <mxCell id="HglV9qDlDRLHziCRikBF-95" style="edgeStyle=orthogonalEdgeStyle;rounded=0;orthogonalLoop=1;jettySize=auto;html=1;endArrow=none;endFill=0;" parent="1" source="HglV9qDlDRLHziCRikBF-96" edge="1">
          <mxGeometry relative="1" as="geometry">
            <mxPoint x="1025" y="544" as="targetPoint" />
          </mxGeometry>
        </mxCell>
        <mxCell id="HglV9qDlDRLHziCRikBF-96" value="Inizializzazione" style="rhombus;whiteSpace=wrap;html=1;fillColor=#f8cecc;strokeColor=#b85450;rounded=0;" parent="1" vertex="1">
          <mxGeometry x="977.5" y="409" width="95" height="70" as="geometry" />
        </mxCell>
        <mxCell id="HglV9qDlDRLHziCRikBF-97" style="edgeStyle=orthogonalEdgeStyle;rounded=0;orthogonalLoop=1;jettySize=auto;html=1;endArrow=none;endFill=0;" parent="1" source="HglV9qDlDRLHziCRikBF-102" target="HglV9qDlDRLHziCRikBF-104" edge="1">
          <mxGeometry relative="1" as="geometry">
            <mxPoint x="1120" y="564" as="targetPoint" />
          </mxGeometry>
        </mxCell>
        <mxCell id="HglV9qDlDRLHziCRikBF-98" style="edgeStyle=orthogonalEdgeStyle;rounded=0;orthogonalLoop=1;jettySize=auto;html=1;endArrow=none;endFill=0;" parent="1" source="HglV9qDlDRLHziCRikBF-102" target="HglV9qDlDRLHziCRikBF-109" edge="1">
          <mxGeometry relative="1" as="geometry">
            <mxPoint x="1025" y="654" as="targetPoint" />
          </mxGeometry>
        </mxCell>
        <mxCell id="HglV9qDlDRLHziCRikBF-99" style="edgeStyle=orthogonalEdgeStyle;rounded=0;orthogonalLoop=1;jettySize=auto;html=1;endArrow=oval;endFill=0;" parent="1" source="HglV9qDlDRLHziCRikBF-102" edge="1">
          <mxGeometry relative="1" as="geometry">
            <mxPoint x="940" y="554" as="targetPoint" />
            <Array as="points">
              <mxPoint x="950" y="554" />
              <mxPoint x="950" y="554" />
            </Array>
          </mxGeometry>
        </mxCell>
        <mxCell id="HglV9qDlDRLHziCRikBF-100" style="edgeStyle=orthogonalEdgeStyle;rounded=0;orthogonalLoop=1;jettySize=auto;html=1;endArrow=oval;endFill=0;" parent="1" source="HglV9qDlDRLHziCRikBF-102" edge="1">
          <mxGeometry relative="1" as="geometry">
            <mxPoint x="940" y="574" as="targetPoint" />
            <Array as="points">
              <mxPoint x="950" y="574" />
              <mxPoint x="950" y="574" />
            </Array>
          </mxGeometry>
        </mxCell>
        <mxCell id="HglV9qDlDRLHziCRikBF-101" style="edgeStyle=orthogonalEdgeStyle;rounded=0;orthogonalLoop=1;jettySize=auto;html=1;endArrow=oval;endFill=0;" parent="1" edge="1">
          <mxGeometry relative="1" as="geometry">
            <mxPoint x="1070" y="524" as="targetPoint" />
            <mxPoint x="1069.8" y="544" as="sourcePoint" />
            <Array as="points">
              <mxPoint x="1069.8" y="544" />
              <mxPoint x="1069.8" y="506" />
            </Array>
          </mxGeometry>
        </mxCell>
        <mxCell id="HglV9qDlDRLHziCRikBF-102" value="Connessione" style="rounded=0;whiteSpace=wrap;html=1;fillColor=#f8cecc;strokeColor=#b85450;" parent="1" vertex="1">
          <mxGeometry x="970" y="544" width="110" height="40" as="geometry" />
        </mxCell>
        <mxCell id="HglV9qDlDRLHziCRikBF-103" style="edgeStyle=orthogonalEdgeStyle;rounded=0;orthogonalLoop=1;jettySize=auto;html=1;endArrow=none;endFill=0;" parent="1" source="HglV9qDlDRLHziCRikBF-104" target="HglV9qDlDRLHziCRikBF-107" edge="1">
          <mxGeometry relative="1" as="geometry">
            <mxPoint x="1260" y="564" as="targetPoint" />
          </mxGeometry>
        </mxCell>
        <mxCell id="HglV9qDlDRLHziCRikBF-104" value="Utilizzo" style="rhombus;whiteSpace=wrap;html=1;fillColor=#f8cecc;strokeColor=#b85450;" parent="1" vertex="1">
          <mxGeometry x="1170" y="534" width="90" height="60" as="geometry" />
        </mxCell>
        <mxCell id="HglV9qDlDRLHziCRikBF-105" style="edgeStyle=orthogonalEdgeStyle;rounded=0;orthogonalLoop=1;jettySize=auto;html=1;endArrow=oval;endFill=0;" parent="1" source="HglV9qDlDRLHziCRikBF-107" target="HglV9qDlDRLHziCRikBF-189" edge="1">
          <mxGeometry relative="1" as="geometry">
            <Array as="points">
              <mxPoint x="1385" y="594" />
              <mxPoint x="1385" y="594" />
            </Array>
          </mxGeometry>
        </mxCell>
        <mxCell id="HglV9qDlDRLHziCRikBF-106" style="edgeStyle=orthogonalEdgeStyle;rounded=0;orthogonalLoop=1;jettySize=auto;html=1;endArrow=oval;endFill=1;" parent="1" source="HglV9qDlDRLHziCRikBF-107" edge="1">
          <mxGeometry relative="1" as="geometry">
            <mxPoint x="1415" y="614" as="targetPoint" />
          </mxGeometry>
        </mxCell>
        <mxCell id="HglV9qDlDRLHziCRikBF-107" value="Dispositivo" style="rounded=0;whiteSpace=wrap;html=1;fillColor=#f8cecc;strokeColor=#b85450;" parent="1" vertex="1">
          <mxGeometry x="1360" y="544" width="110" height="40" as="geometry" />
        </mxCell>
        <mxCell id="HglV9qDlDRLHziCRikBF-108" style="edgeStyle=orthogonalEdgeStyle;rounded=0;orthogonalLoop=1;jettySize=auto;html=1;endArrow=none;endFill=0;" parent="1" source="HglV9qDlDRLHziCRikBF-109" target="HglV9qDlDRLHziCRikBF-114" edge="1">
          <mxGeometry relative="1" as="geometry">
            <mxPoint x="1025" y="754" as="targetPoint" />
          </mxGeometry>
        </mxCell>
        <mxCell id="HglV9qDlDRLHziCRikBF-109" value="Richiesta" style="rhombus;whiteSpace=wrap;html=1;fillColor=#dae8fc;strokeColor=#6c8ebf;" parent="1" vertex="1">
          <mxGeometry x="982.5" y="644" width="85" height="60" as="geometry" />
        </mxCell>
        <mxCell id="HglV9qDlDRLHziCRikBF-110" style="edgeStyle=orthogonalEdgeStyle;rounded=0;orthogonalLoop=1;jettySize=auto;html=1;endArrow=none;endFill=0;" parent="1" source="HglV9qDlDRLHziCRikBF-114" target="HglV9qDlDRLHziCRikBF-116" edge="1">
          <mxGeometry relative="1" as="geometry">
            <mxPoint x="580" y="764" as="targetPoint" />
            <Array as="points">
              <mxPoint x="710" y="774" />
              <mxPoint x="710" y="774" />
            </Array>
          </mxGeometry>
        </mxCell>
        <mxCell id="HglV9qDlDRLHziCRikBF-111" style="edgeStyle=orthogonalEdgeStyle;rounded=0;orthogonalLoop=1;jettySize=auto;html=1;endArrow=none;endFill=0;" parent="1" source="HglV9qDlDRLHziCRikBF-114" target="HglV9qDlDRLHziCRikBF-118" edge="1">
          <mxGeometry relative="1" as="geometry">
            <mxPoint x="1140" y="774" as="targetPoint" />
          </mxGeometry>
        </mxCell>
        <mxCell id="HglV9qDlDRLHziCRikBF-112" style="edgeStyle=orthogonalEdgeStyle;rounded=0;orthogonalLoop=1;jettySize=auto;html=1;endArrow=oval;endFill=0;exitX=1;exitY=0.75;exitDx=0;exitDy=0;" parent="1" source="HglV9qDlDRLHziCRikBF-114" edge="1">
          <mxGeometry relative="1" as="geometry">
            <mxPoint x="1102" y="784" as="targetPoint" />
          </mxGeometry>
        </mxCell>
        <mxCell id="HglV9qDlDRLHziCRikBF-113" style="edgeStyle=orthogonalEdgeStyle;rounded=0;orthogonalLoop=1;jettySize=auto;html=1;endArrow=oval;endFill=0;" parent="1" edge="1">
          <mxGeometry relative="1" as="geometry">
            <mxPoint x="1102" y="764" as="targetPoint" />
            <mxPoint x="1078" y="764" as="sourcePoint" />
          </mxGeometry>
        </mxCell>
        <mxCell id="HglV9qDlDRLHziCRikBF-114" value="Visualizzazione" style="rounded=0;whiteSpace=wrap;html=1;fillColor=#dae8fc;strokeColor=#6c8ebf;" parent="1" vertex="1">
          <mxGeometry x="972.5" y="754" width="105" height="40" as="geometry" />
        </mxCell>
        <mxCell id="HglV9qDlDRLHziCRikBF-115" style="edgeStyle=orthogonalEdgeStyle;rounded=0;orthogonalLoop=1;jettySize=auto;html=1;entryX=0.25;entryY=1;entryDx=0;entryDy=0;exitX=0.5;exitY=0;exitDx=0;exitDy=0;endArrow=none;endFill=0;" parent="1" source="HglV9qDlDRLHziCRikBF-116" target="HglV9qDlDRLHziCRikBF-47" edge="1">
          <mxGeometry relative="1" as="geometry">
            <mxPoint x="420" y="274" as="targetPoint" />
            <Array as="points">
              <mxPoint x="130" y="744" />
              <mxPoint x="130" y="330" />
              <mxPoint x="455" y="330" />
              <mxPoint x="455" y="194" />
              <mxPoint x="456" y="194" />
            </Array>
          </mxGeometry>
        </mxCell>
        <mxCell id="HglV9qDlDRLHziCRikBF-116" value="Accesso" style="rhombus;whiteSpace=wrap;html=1;fillColor=#dae8fc;strokeColor=#6c8ebf;" parent="1" vertex="1">
          <mxGeometry x="81.88" y="744" width="98.12" height="60" as="geometry" />
        </mxCell>
        <mxCell id="HglV9qDlDRLHziCRikBF-117" style="edgeStyle=orthogonalEdgeStyle;rounded=0;orthogonalLoop=1;jettySize=auto;html=1;endArrow=none;endFill=0;" parent="1" source="HglV9qDlDRLHziCRikBF-118" target="HglV9qDlDRLHziCRikBF-125" edge="1">
          <mxGeometry relative="1" as="geometry">
            <mxPoint x="1025" y="984" as="targetPoint" />
          </mxGeometry>
        </mxCell>
        <mxCell id="HglV9qDlDRLHziCRikBF-118" value="Utilizzo di" style="rhombus;whiteSpace=wrap;html=1;fillColor=#dae8fc;strokeColor=#6c8ebf;" parent="1" vertex="1">
          <mxGeometry x="977.5" y="854" width="95" height="60" as="geometry" />
        </mxCell>
        <mxCell id="HglV9qDlDRLHziCRikBF-119" style="edgeStyle=orthogonalEdgeStyle;rounded=0;orthogonalLoop=1;jettySize=auto;html=1;exitX=0.5;exitY=1;exitDx=0;exitDy=0;endArrow=none;endFill=0;" parent="1" source="HglV9qDlDRLHziCRikBF-125" target="HglV9qDlDRLHziCRikBF-128" edge="1">
          <mxGeometry relative="1" as="geometry">
            <mxPoint x="50" y="534" as="targetPoint" />
            <Array as="points">
              <mxPoint x="1029" y="1040" />
              <mxPoint x="50" y="1040" />
            </Array>
          </mxGeometry>
        </mxCell>
        <mxCell id="HglV9qDlDRLHziCRikBF-120" style="edgeStyle=orthogonalEdgeStyle;rounded=0;orthogonalLoop=1;jettySize=auto;html=1;endArrow=oval;endFill=0;exitX=1.011;exitY=0.073;exitDx=0;exitDy=0;exitPerimeter=0;" parent="1" source="HglV9qDlDRLHziCRikBF-125" edge="1">
          <mxGeometry relative="1" as="geometry">
            <mxPoint x="1126" y="968" as="targetPoint" />
          </mxGeometry>
        </mxCell>
        <mxCell id="HglV9qDlDRLHziCRikBF-121" style="edgeStyle=orthogonalEdgeStyle;rounded=0;orthogonalLoop=1;jettySize=auto;html=1;exitX=0.984;exitY=0.245;exitDx=0;exitDy=0;exitPerimeter=0;endArrow=oval;endFill=1;" parent="1" source="HglV9qDlDRLHziCRikBF-125" edge="1">
          <mxGeometry relative="1" as="geometry">
            <mxPoint x="1126" y="980" as="targetPoint" />
          </mxGeometry>
        </mxCell>
        <mxCell id="HglV9qDlDRLHziCRikBF-122" style="edgeStyle=orthogonalEdgeStyle;rounded=0;orthogonalLoop=1;jettySize=auto;html=1;endArrow=oval;endFill=0;" parent="1" source="HglV9qDlDRLHziCRikBF-125" edge="1">
          <mxGeometry relative="1" as="geometry">
            <mxPoint x="1126" y="996" as="targetPoint" />
          </mxGeometry>
        </mxCell>
        <mxCell id="HglV9qDlDRLHziCRikBF-123" style="edgeStyle=orthogonalEdgeStyle;rounded=0;orthogonalLoop=1;jettySize=auto;html=1;exitX=1.002;exitY=0.709;exitDx=0;exitDy=0;exitPerimeter=0;endArrow=oval;endFill=0;" parent="1" source="HglV9qDlDRLHziCRikBF-125" target="HglV9qDlDRLHziCRikBF-218" edge="1">
          <mxGeometry relative="1" as="geometry">
            <mxPoint x="1126" y="1016" as="targetPoint" />
            <Array as="points">
              <mxPoint x="1090" y="1011" />
            </Array>
          </mxGeometry>
        </mxCell>
        <mxCell id="HglV9qDlDRLHziCRikBF-124" style="edgeStyle=orthogonalEdgeStyle;rounded=0;orthogonalLoop=1;jettySize=auto;html=1;endArrow=oval;endFill=0;" parent="1" source="HglV9qDlDRLHziCRikBF-125" edge="1">
          <mxGeometry relative="1" as="geometry">
            <mxPoint x="922" y="996" as="targetPoint" />
          </mxGeometry>
        </mxCell>
        <mxCell id="HglV9qDlDRLHziCRikBF-125" value="Server" style="rounded=0;whiteSpace=wrap;html=1;fillColor=#dae8fc;strokeColor=#6c8ebf;" parent="1" vertex="1">
          <mxGeometry x="967.5" y="964" width="122.5" height="64" as="geometry" />
        </mxCell>
        <mxCell id="HglV9qDlDRLHziCRikBF-126" style="edgeStyle=orthogonalEdgeStyle;rounded=0;orthogonalLoop=1;jettySize=auto;html=1;exitX=0;exitY=0.25;exitDx=0;exitDy=0;endArrow=oval;endFill=0;" parent="1" target="HglV9qDlDRLHziCRikBF-217" edge="1">
          <mxGeometry relative="1" as="geometry">
            <mxPoint x="966" y="971.125" as="sourcePoint" />
          </mxGeometry>
        </mxCell>
        <mxCell id="HglV9qDlDRLHziCRikBF-127" style="edgeStyle=orthogonalEdgeStyle;rounded=0;orthogonalLoop=1;jettySize=auto;html=1;endArrow=none;endFill=0;" parent="1" source="HglV9qDlDRLHziCRikBF-128" target="HglV9qDlDRLHziCRikBF-47" edge="1">
          <mxGeometry relative="1" as="geometry">
            <mxPoint x="250" y="244" as="targetPoint" />
            <Array as="points">
              <mxPoint x="50" y="384" />
              <mxPoint x="120" y="384" />
              <mxPoint x="120" y="310" />
              <mxPoint x="440" y="310" />
            </Array>
          </mxGeometry>
        </mxCell>
        <mxCell id="HglV9qDlDRLHziCRikBF-128" value="Possesso Server" style="rhombus;whiteSpace=wrap;html=1;fillColor=#dae8fc;strokeColor=#6c8ebf;" parent="1" vertex="1">
          <mxGeometry x="10" y="504" width="80" height="50" as="geometry" />
        </mxCell>
        <mxCell id="HglV9qDlDRLHziCRikBF-129" value="(1,n)" style="text;html=1;align=center;verticalAlign=middle;resizable=0;points=[];autosize=1;strokeColor=none;fillColor=none;" parent="1" vertex="1">
          <mxGeometry x="514.38" y="354" width="50" height="30" as="geometry" />
        </mxCell>
        <mxCell id="HglV9qDlDRLHziCRikBF-130" value="(1,1)" style="text;html=1;align=center;verticalAlign=middle;resizable=0;points=[];autosize=1;strokeColor=none;fillColor=none;" parent="1" vertex="1">
          <mxGeometry x="477.5" y="186" width="50" height="30" as="geometry" />
        </mxCell>
        <mxCell id="HglV9qDlDRLHziCRikBF-131" value="(1,n)" style="text;html=1;align=center;verticalAlign=middle;resizable=0;points=[];autosize=1;strokeColor=none;fillColor=none;" parent="1" vertex="1">
          <mxGeometry x="523.75" y="402" width="50" height="30" as="geometry" />
        </mxCell>
        <mxCell id="HglV9qDlDRLHziCRikBF-132" value="(1,n)" style="text;html=1;align=center;verticalAlign=middle;resizable=0;points=[];autosize=1;strokeColor=none;fillColor=none;" parent="1" vertex="1">
          <mxGeometry x="730" y="412" width="50" height="30" as="geometry" />
        </mxCell>
        <mxCell id="HglV9qDlDRLHziCRikBF-133" value="(0,n)" style="text;html=1;align=center;verticalAlign=middle;resizable=0;points=[];autosize=1;strokeColor=none;fillColor=none;" parent="1" vertex="1">
          <mxGeometry x="805" y="432" width="50" height="30" as="geometry" />
        </mxCell>
        <mxCell id="HglV9qDlDRLHziCRikBF-134" value="(0,n)" style="text;html=1;align=center;verticalAlign=middle;resizable=0;points=[];autosize=1;strokeColor=none;fillColor=none;" parent="1" vertex="1">
          <mxGeometry x="515" y="632" width="50" height="30" as="geometry" />
        </mxCell>
        <mxCell id="HglV9qDlDRLHziCRikBF-135" value="(0,n)" style="text;html=1;align=center;verticalAlign=middle;resizable=0;points=[];autosize=1;strokeColor=none;fillColor=none;" parent="1" vertex="1">
          <mxGeometry x="475" y="604" width="50" height="30" as="geometry" />
        </mxCell>
        <mxCell id="HglV9qDlDRLHziCRikBF-136" value="(0,n)" style="text;html=1;align=center;verticalAlign=middle;resizable=0;points=[];autosize=1;strokeColor=none;fillColor=none;" parent="1" vertex="1">
          <mxGeometry x="395" y="622" width="50" height="30" as="geometry" />
        </mxCell>
        <mxCell id="HglV9qDlDRLHziCRikBF-137" value="(0,n)" style="text;html=1;align=center;verticalAlign=middle;resizable=0;points=[];autosize=1;strokeColor=none;fillColor=none;" parent="1" vertex="1">
          <mxGeometry x="450" y="434" width="50" height="30" as="geometry" />
        </mxCell>
        <mxCell id="HglV9qDlDRLHziCRikBF-138" value="(1,1)" style="text;html=1;align=center;verticalAlign=middle;resizable=0;points=[];autosize=1;strokeColor=none;fillColor=none;" parent="1" vertex="1">
          <mxGeometry x="420" y="442" width="50" height="30" as="geometry" />
        </mxCell>
        <mxCell id="HglV9qDlDRLHziCRikBF-139" value="(1,n)" style="text;html=1;align=center;verticalAlign=middle;resizable=0;points=[];autosize=1;strokeColor=none;fillColor=none;" parent="1" vertex="1">
          <mxGeometry x="245" y="612" width="50" height="30" as="geometry" />
        </mxCell>
        <mxCell id="HglV9qDlDRLHziCRikBF-140" value="(1,n)" style="text;html=1;align=center;verticalAlign=middle;resizable=0;points=[];autosize=1;strokeColor=none;fillColor=none;" parent="1" vertex="1">
          <mxGeometry x="530" y="374" width="50" height="30" as="geometry" />
        </mxCell>
        <mxCell id="HglV9qDlDRLHziCRikBF-141" value="(1,n)" style="text;html=1;align=center;verticalAlign=middle;resizable=0;points=[];autosize=1;strokeColor=none;fillColor=none;" parent="1" vertex="1">
          <mxGeometry x="929.75" y="322.5" width="50" height="30" as="geometry" />
        </mxCell>
        <mxCell id="HglV9qDlDRLHziCRikBF-142" value="(0,n)" style="text;html=1;align=center;verticalAlign=middle;resizable=0;points=[];autosize=1;strokeColor=none;fillColor=none;" parent="1" vertex="1">
          <mxGeometry x="1067.5" y="224" width="50" height="30" as="geometry" />
        </mxCell>
        <mxCell id="HglV9qDlDRLHziCRikBF-143" value="(0,n)" style="text;html=1;align=center;verticalAlign=middle;resizable=0;points=[];autosize=1;strokeColor=none;fillColor=none;" parent="1" vertex="1">
          <mxGeometry x="1294" y="141" width="50" height="30" as="geometry" />
        </mxCell>
        <mxCell id="HglV9qDlDRLHziCRikBF-144" value="(1,1)" style="text;html=1;align=center;verticalAlign=middle;resizable=0;points=[];autosize=1;strokeColor=none;fillColor=none;" parent="1" vertex="1">
          <mxGeometry x="1390" y="419" width="50" height="30" as="geometry" />
        </mxCell>
        <mxCell id="HglV9qDlDRLHziCRikBF-145" value="(0,n)" style="text;html=1;align=center;verticalAlign=middle;resizable=0;points=[];autosize=1;strokeColor=none;fillColor=none;" parent="1" vertex="1">
          <mxGeometry x="1320" y="312" width="50" height="30" as="geometry" />
        </mxCell>
        <mxCell id="HglV9qDlDRLHziCRikBF-146" value="(0,n)" style="text;html=1;align=center;verticalAlign=middle;resizable=0;points=[];autosize=1;strokeColor=none;fillColor=none;" parent="1" vertex="1">
          <mxGeometry x="1110" y="272" width="50" height="30" as="geometry" />
        </mxCell>
        <mxCell id="HglV9qDlDRLHziCRikBF-147" value="(1,1)" style="text;html=1;align=center;verticalAlign=middle;resizable=0;points=[];autosize=1;strokeColor=none;fillColor=none;" parent="1" vertex="1">
          <mxGeometry x="1235" y="274" width="50" height="30" as="geometry" />
        </mxCell>
        <mxCell id="HglV9qDlDRLHziCRikBF-148" value="(0,n)" style="text;html=1;align=center;verticalAlign=middle;resizable=0;points=[];autosize=1;strokeColor=none;fillColor=none;" parent="1" vertex="1">
          <mxGeometry x="1032.5" y="329" width="50" height="30" as="geometry" />
        </mxCell>
        <mxCell id="HglV9qDlDRLHziCRikBF-149" value="(1,1)" style="text;html=1;align=center;verticalAlign=middle;resizable=0;points=[];autosize=1;strokeColor=none;fillColor=none;" parent="1" vertex="1">
          <mxGeometry x="1012.5" y="514" width="50" height="30" as="geometry" />
        </mxCell>
        <mxCell id="HglV9qDlDRLHziCRikBF-150" value="(1,1)" style="text;html=1;align=center;verticalAlign=middle;resizable=0;points=[];autosize=1;strokeColor=none;fillColor=none;" parent="1" vertex="1">
          <mxGeometry x="1082.5" y="541" width="50" height="30" as="geometry" />
        </mxCell>
        <mxCell id="HglV9qDlDRLHziCRikBF-151" value="(0,n)" style="text;html=1;align=center;verticalAlign=middle;resizable=0;points=[];autosize=1;strokeColor=none;fillColor=none;" parent="1" vertex="1">
          <mxGeometry x="1315" y="544" width="50" height="30" as="geometry" />
        </mxCell>
        <mxCell id="HglV9qDlDRLHziCRikBF-152" value="(0,n)" style="text;html=1;align=center;verticalAlign=middle;resizable=0;points=[];autosize=1;strokeColor=none;fillColor=none;" parent="1" vertex="1">
          <mxGeometry x="981.25" y="584" width="50" height="30" as="geometry" />
        </mxCell>
        <mxCell id="HglV9qDlDRLHziCRikBF-153" value="(1,1)" style="text;html=1;align=center;verticalAlign=middle;resizable=0;points=[];autosize=1;strokeColor=none;fillColor=none;" parent="1" vertex="1">
          <mxGeometry x="1012.5" y="732" width="50" height="30" as="geometry" />
        </mxCell>
        <mxCell id="HglV9qDlDRLHziCRikBF-154" value="(1,1)" style="text;html=1;align=center;verticalAlign=middle;resizable=0;points=[];autosize=1;strokeColor=none;fillColor=none;" parent="1" vertex="1">
          <mxGeometry x="925" y="742" width="50" height="30" as="geometry" />
        </mxCell>
        <mxCell id="HglV9qDlDRLHziCRikBF-155" value="(1,1)" style="text;html=1;align=center;verticalAlign=middle;resizable=0;points=[];autosize=1;strokeColor=none;fillColor=none;" parent="1" vertex="1">
          <mxGeometry x="1016" y="795" width="48" height="24" as="geometry" />
        </mxCell>
        <mxCell id="HglV9qDlDRLHziCRikBF-156" value="(0,n)" style="text;html=1;align=center;verticalAlign=middle;resizable=0;points=[];autosize=1;strokeColor=none;fillColor=none;" parent="1" vertex="1">
          <mxGeometry x="1017.5" y="931.5" width="50" height="30" as="geometry" />
        </mxCell>
        <mxCell id="HglV9qDlDRLHziCRikBF-157" value="(0,n)" style="text;html=1;align=center;verticalAlign=middle;resizable=0;points=[];autosize=1;strokeColor=none;fillColor=none;" parent="1" vertex="1">
          <mxGeometry x="1017.5" y="1028" width="50" height="30" as="geometry" />
        </mxCell>
        <mxCell id="HglV9qDlDRLHziCRikBF-158" value="(0,n)" style="text;html=1;align=center;verticalAlign=middle;resizable=0;points=[];autosize=1;strokeColor=none;fillColor=none;" parent="1" vertex="1">
          <mxGeometry x="445" y="204" width="50" height="30" as="geometry" />
        </mxCell>
        <mxCell id="HglV9qDlDRLHziCRikBF-159" value="(0,n)" style="text;html=1;align=center;verticalAlign=middle;resizable=0;points=[];autosize=1;strokeColor=none;fillColor=none;" parent="1" vertex="1">
          <mxGeometry x="395" y="202" width="50" height="30" as="geometry" />
        </mxCell>
        <mxCell id="HglV9qDlDRLHziCRikBF-160" value="Titolo" style="text;html=1;align=center;verticalAlign=middle;resizable=0;points=[];autosize=1;strokeColor=none;fillColor=none;" parent="1" vertex="1">
          <mxGeometry x="340" y="384" width="50" height="30" as="geometry" />
        </mxCell>
        <mxCell id="HglV9qDlDRLHziCRikBF-161" value="Descrizione" style="text;html=1;align=center;verticalAlign=middle;resizable=0;points=[];autosize=1;strokeColor=none;fillColor=none;" parent="1" vertex="1">
          <mxGeometry x="300" y="402" width="90" height="30" as="geometry" />
        </mxCell>
        <mxCell id="HglV9qDlDRLHziCRikBF-162" value="Durata" style="text;html=1;align=center;verticalAlign=middle;resizable=0;points=[];autosize=1;strokeColor=none;fillColor=none;" parent="1" vertex="1">
          <mxGeometry x="375" y="449" width="60" height="30" as="geometry" />
        </mxCell>
        <mxCell id="HglV9qDlDRLHziCRikBF-163" value="Codice" style="text;html=1;align=center;verticalAlign=middle;resizable=0;points=[];autosize=1;strokeColor=none;fillColor=none;" parent="1" vertex="1">
          <mxGeometry x="330" y="372" width="60" height="30" as="geometry" />
        </mxCell>
        <mxCell id="HglV9qDlDRLHziCRikBF-164" value="Paese di Produzione" style="text;html=1;align=center;verticalAlign=middle;resizable=0;points=[];autosize=1;strokeColor=none;fillColor=none;" parent="1" vertex="1">
          <mxGeometry x="260" y="421.5" width="130" height="30" as="geometry" />
        </mxCell>
        <mxCell id="HglV9qDlDRLHziCRikBF-165" value="Rating" style="text;html=1;align=center;verticalAlign=middle;resizable=0;points=[];autosize=1;strokeColor=none;fillColor=none;" parent="1" vertex="1">
          <mxGeometry x="406" y="327" width="60" height="30" as="geometry" />
        </mxCell>
        <mxCell id="HglV9qDlDRLHziCRikBF-166" value="Tipo" style="text;html=1;align=center;verticalAlign=middle;resizable=0;points=[];autosize=1;strokeColor=none;fillColor=none;" parent="1" vertex="1">
          <mxGeometry x="425" y="702" width="50" height="30" as="geometry" />
        </mxCell>
        <mxCell id="HglV9qDlDRLHziCRikBF-167" value="Valore" style="text;html=1;align=center;verticalAlign=middle;resizable=0;points=[];autosize=1;strokeColor=none;fillColor=none;" parent="1" vertex="1">
          <mxGeometry x="480" y="702" width="60" height="30" as="geometry" />
        </mxCell>
        <mxCell id="HglV9qDlDRLHziCRikBF-168" value="Codice" style="text;html=1;align=center;verticalAlign=middle;resizable=0;points=[];autosize=1;strokeColor=none;fillColor=none;" parent="1" vertex="1">
          <mxGeometry x="225" y="694" width="60" height="30" as="geometry" />
        </mxCell>
        <mxCell id="HglV9qDlDRLHziCRikBF-169" value="Codice" style="text;html=1;align=center;verticalAlign=middle;resizable=0;points=[];autosize=1;strokeColor=none;fillColor=none;" parent="1" vertex="1">
          <mxGeometry x="790" y="342" width="60" height="30" as="geometry" />
        </mxCell>
        <mxCell id="HglV9qDlDRLHziCRikBF-170" value="Nome" style="text;html=1;align=center;verticalAlign=middle;resizable=0;points=[];autosize=1;strokeColor=none;fillColor=none;" parent="1" vertex="1">
          <mxGeometry x="880" y="384" width="60" height="30" as="geometry" />
        </mxCell>
        <mxCell id="HglV9qDlDRLHziCRikBF-171" value="Cognome" style="text;html=1;align=center;verticalAlign=middle;resizable=0;points=[];autosize=1;strokeColor=none;fillColor=none;" parent="1" vertex="1">
          <mxGeometry x="880" y="409" width="80" height="30" as="geometry" />
        </mxCell>
        <mxCell id="HglV9qDlDRLHziCRikBF-172" value="Nome" style="text;html=1;align=center;verticalAlign=middle;resizable=0;points=[];autosize=1;strokeColor=none;fillColor=none;" parent="1" vertex="1">
          <mxGeometry x="138.12" y="629" width="60" height="30" as="geometry" />
        </mxCell>
        <mxCell id="HglV9qDlDRLHziCRikBF-173" value="Cognome" style="text;html=1;align=center;verticalAlign=middle;resizable=0;points=[];autosize=1;strokeColor=none;fillColor=none;" parent="1" vertex="1">
          <mxGeometry x="118.12" y="652" width="80" height="30" as="geometry" />
        </mxCell>
        <mxCell id="HglV9qDlDRLHziCRikBF-174" value="Valore" style="text;html=1;align=center;verticalAlign=middle;resizable=0;points=[];autosize=1;strokeColor=none;fillColor=none;" parent="1" vertex="1">
          <mxGeometry x="775" y="297" width="60" height="30" as="geometry" />
        </mxCell>
        <mxCell id="HglV9qDlDRLHziCRikBF-175" value="Codice" style="text;html=1;align=center;verticalAlign=middle;resizable=0;points=[];autosize=1;strokeColor=none;fillColor=none;" parent="1" vertex="1">
          <mxGeometry x="1022.5" y="207.75" width="60" height="30" as="geometry" />
        </mxCell>
        <mxCell id="HglV9qDlDRLHziCRikBF-176" style="edgeStyle=orthogonalEdgeStyle;rounded=0;orthogonalLoop=1;jettySize=auto;html=1;endArrow=oval;endFill=0;" parent="1" source="HglV9qDlDRLHziCRikBF-180" edge="1">
          <mxGeometry relative="1" as="geometry">
            <mxPoint x="1001" y="154" as="targetPoint" />
          </mxGeometry>
        </mxCell>
        <mxCell id="HglV9qDlDRLHziCRikBF-177" style="edgeStyle=orthogonalEdgeStyle;rounded=0;orthogonalLoop=1;jettySize=auto;html=1;exitX=0.798;exitY=0.091;exitDx=0;exitDy=0;exitPerimeter=0;endArrow=oval;endFill=0;entryX=0.396;entryY=0.953;entryDx=0;entryDy=0;entryPerimeter=0;" parent="1" source="HglV9qDlDRLHziCRikBF-180" target="HglV9qDlDRLHziCRikBF-182" edge="1">
          <mxGeometry relative="1" as="geometry">
            <mxPoint x="1040" y="174" as="targetPoint" />
          </mxGeometry>
        </mxCell>
        <mxCell id="HglV9qDlDRLHziCRikBF-178" style="edgeStyle=orthogonalEdgeStyle;rounded=0;orthogonalLoop=1;jettySize=auto;html=1;endArrow=oval;endFill=0;" parent="1" source="HglV9qDlDRLHziCRikBF-180" edge="1">
          <mxGeometry relative="1" as="geometry">
            <mxPoint x="930" y="194.875" as="targetPoint" />
          </mxGeometry>
        </mxCell>
        <mxCell id="HglV9qDlDRLHziCRikBF-363" style="edgeStyle=orthogonalEdgeStyle;rounded=0;orthogonalLoop=1;jettySize=auto;html=1;entryX=0.602;entryY=1.076;entryDx=0;entryDy=0;entryPerimeter=0;exitX=0.15;exitY=0.203;exitDx=0;exitDy=0;exitPerimeter=0;endArrow=oval;endFill=0;" parent="1" source="HglV9qDlDRLHziCRikBF-180" target="HglV9qDlDRLHziCRikBF-184" edge="1">
          <mxGeometry relative="1" as="geometry" />
        </mxCell>
        <mxCell id="HglV9qDlDRLHziCRikBF-180" value="Informazioni Personali" style="ellipse;whiteSpace=wrap;html=1;" parent="1" vertex="1">
          <mxGeometry x="960" y="174" width="82.5" height="41.75" as="geometry" />
        </mxCell>
        <mxCell id="HglV9qDlDRLHziCRikBF-181" value="Nome" style="text;html=1;align=center;verticalAlign=middle;resizable=0;points=[];autosize=1;strokeColor=none;fillColor=none;" parent="1" vertex="1">
          <mxGeometry x="971.25" y="129" width="60" height="30" as="geometry" />
        </mxCell>
        <mxCell id="HglV9qDlDRLHziCRikBF-182" value="Cognome" style="text;html=1;align=center;verticalAlign=middle;resizable=0;points=[];autosize=1;strokeColor=none;fillColor=none;" parent="1" vertex="1">
          <mxGeometry x="1012.5" y="132" width="80" height="30" as="geometry" />
        </mxCell>
        <mxCell id="HglV9qDlDRLHziCRikBF-183" value="Email" style="text;html=1;align=center;verticalAlign=middle;resizable=0;points=[];autosize=1;strokeColor=none;fillColor=none;" parent="1" vertex="1">
          <mxGeometry x="882.5" y="177.75" width="50" height="30" as="geometry" />
        </mxCell>
        <mxCell id="HglV9qDlDRLHziCRikBF-184" value="Password" style="text;html=1;align=center;verticalAlign=middle;resizable=0;points=[];autosize=1;strokeColor=none;fillColor=none;" parent="1" vertex="1">
          <mxGeometry x="902.5" y="140.25" width="80" height="30" as="geometry" />
        </mxCell>
        <mxCell id="HglV9qDlDRLHziCRikBF-185" value="Inizio" style="text;html=1;align=center;verticalAlign=middle;resizable=0;points=[];autosize=1;strokeColor=none;fillColor=none;" parent="1" vertex="1">
          <mxGeometry x="1042.5" y="498" width="50" height="30" as="geometry" />
        </mxCell>
        <mxCell id="HglV9qDlDRLHziCRikBF-186" value="Fine" style="text;html=1;align=center;verticalAlign=middle;resizable=0;points=[];autosize=1;strokeColor=none;fillColor=none;" parent="1" vertex="1">
          <mxGeometry x="890" y="554" width="50" height="30" as="geometry" />
        </mxCell>
        <mxCell id="HglV9qDlDRLHziCRikBF-187" value="" style="edgeStyle=none;orthogonalLoop=1;jettySize=auto;html=1;rounded=0;endArrow=oval;endFill=1;" parent="1" edge="1">
          <mxGeometry width="100" relative="1" as="geometry">
            <mxPoint x="1060" y="534" as="sourcePoint" />
            <mxPoint x="1090" y="580" as="targetPoint" />
            <Array as="points">
              <mxPoint x="1090" y="534" />
            </Array>
          </mxGeometry>
        </mxCell>
        <mxCell id="HglV9qDlDRLHziCRikBF-188" value="IP" style="text;html=1;align=center;verticalAlign=middle;resizable=0;points=[];autosize=1;strokeColor=none;fillColor=none;" parent="1" vertex="1">
          <mxGeometry x="910" y="539" width="30" height="30" as="geometry" />
        </mxCell>
        <mxCell id="HglV9qDlDRLHziCRikBF-189" value="Tipo" style="text;html=1;align=center;verticalAlign=middle;resizable=0;points=[];autosize=1;strokeColor=none;fillColor=none;" parent="1" vertex="1">
          <mxGeometry x="1360" y="612" width="50" height="30" as="geometry" />
        </mxCell>
        <mxCell id="HglV9qDlDRLHziCRikBF-190" value="Tipo" style="text;html=1;align=center;verticalAlign=middle;resizable=0;points=[];autosize=1;strokeColor=none;fillColor=none;" parent="1" vertex="1">
          <mxGeometry x="1334" y="216" width="50" height="30" as="geometry" />
        </mxCell>
        <mxCell id="HglV9qDlDRLHziCRikBF-191" value="(0,n)" style="text;html=1;align=center;verticalAlign=middle;resizable=0;points=[];autosize=1;strokeColor=none;fillColor=none;" parent="1" vertex="1">
          <mxGeometry x="1340" y="115.5" width="50" height="30" as="geometry" />
        </mxCell>
        <mxCell id="HglV9qDlDRLHziCRikBF-192" value="Download" style="text;html=1;align=center;verticalAlign=middle;resizable=0;points=[];autosize=1;strokeColor=none;fillColor=none;" parent="1" vertex="1">
          <mxGeometry x="1514" y="127.5" width="80" height="30" as="geometry" />
        </mxCell>
        <mxCell id="HglV9qDlDRLHziCRikBF-193" value="Massime Connessioni" style="text;html=1;align=center;verticalAlign=middle;resizable=0;points=[];autosize=1;strokeColor=none;fillColor=none;" parent="1" vertex="1">
          <mxGeometry x="1514" y="145.5" width="140" height="30" as="geometry" />
        </mxCell>
        <mxCell id="HglV9qDlDRLHziCRikBF-194" value="Gb Massimi" style="text;html=1;align=center;verticalAlign=middle;resizable=0;points=[];autosize=1;strokeColor=none;fillColor=none;" parent="1" vertex="1">
          <mxGeometry x="1514" y="175.5" width="90" height="30" as="geometry" />
        </mxCell>
        <mxCell id="HglV9qDlDRLHziCRikBF-195" value="(0,1)" style="text;html=1;align=center;verticalAlign=middle;resizable=0;points=[];autosize=1;strokeColor=none;fillColor=none;" parent="1" vertex="1">
          <mxGeometry x="1470" y="185" width="50" height="30" as="geometry" />
        </mxCell>
        <mxCell id="HglV9qDlDRLHziCRikBF-196" value="Durata" style="text;html=1;align=center;verticalAlign=middle;resizable=0;points=[];autosize=1;strokeColor=none;fillColor=none;" parent="1" vertex="1">
          <mxGeometry x="1248" y="177.75" width="60" height="30" as="geometry" />
        </mxCell>
        <mxCell id="HglV9qDlDRLHziCRikBF-197" value="Tariffa Mensile" style="text;html=1;align=center;verticalAlign=middle;resizable=0;points=[];autosize=1;strokeColor=none;fillColor=none;" parent="1" vertex="1">
          <mxGeometry x="1514" y="162.5" width="100" height="30" as="geometry" />
        </mxCell>
        <mxCell id="HglV9qDlDRLHziCRikBF-198" value="Data Emissione" style="text;html=1;align=center;verticalAlign=middle;resizable=0;points=[];autosize=1;strokeColor=none;fillColor=none;" parent="1" vertex="1">
          <mxGeometry x="1504" y="491" width="110" height="30" as="geometry" />
        </mxCell>
        <mxCell id="HglV9qDlDRLHziCRikBF-199" value="Tariffa" style="text;html=1;align=center;verticalAlign=middle;resizable=0;points=[];autosize=1;strokeColor=none;fillColor=none;" parent="1" vertex="1">
          <mxGeometry x="1583" y="439" width="60" height="30" as="geometry" />
        </mxCell>
        <mxCell id="HglV9qDlDRLHziCRikBF-200" value="Data" style="text;html=1;align=center;verticalAlign=middle;resizable=0;points=[];autosize=1;strokeColor=none;fillColor=none;rotation=0;" parent="1" vertex="1">
          <mxGeometry x="1320" y="404" width="50" height="30" as="geometry" />
        </mxCell>
        <mxCell id="HglV9qDlDRLHziCRikBF-201" value="Inizio Abbonamento" style="text;html=1;align=center;verticalAlign=middle;resizable=0;points=[];autosize=1;strokeColor=none;fillColor=none;" parent="1" vertex="1">
          <mxGeometry x="1135" y="219" width="130" height="30" as="geometry" />
        </mxCell>
        <mxCell id="HglV9qDlDRLHziCRikBF-202" value="Scadenza" style="text;html=1;align=center;verticalAlign=middle;resizable=0;points=[];autosize=1;strokeColor=none;fillColor=none;" parent="1" vertex="1">
          <mxGeometry x="1430" y="494" width="80" height="30" as="geometry" />
        </mxCell>
        <mxCell id="HglV9qDlDRLHziCRikBF-203" style="edgeStyle=orthogonalEdgeStyle;rounded=0;orthogonalLoop=1;jettySize=auto;html=1;entryX=0.881;entryY=0.987;entryDx=0;entryDy=0;entryPerimeter=0;endArrow=none;endFill=0;" parent="1" source="HglV9qDlDRLHziCRikBF-205" target="HglV9qDlDRLHziCRikBF-65" edge="1">
          <mxGeometry relative="1" as="geometry" />
        </mxCell>
        <mxCell id="HglV9qDlDRLHziCRikBF-204" style="edgeStyle=orthogonalEdgeStyle;rounded=0;orthogonalLoop=1;jettySize=auto;html=1;endArrow=oval;endFill=0;" parent="1" source="HglV9qDlDRLHziCRikBF-205" edge="1">
          <mxGeometry relative="1" as="geometry">
            <mxPoint x="1189" y="500" as="targetPoint" />
          </mxGeometry>
        </mxCell>
        <mxCell id="HglV9qDlDRLHziCRikBF-205" value="UtenteFattura" style="rhombus;whiteSpace=wrap;html=1;fillColor=#f8cecc;strokeColor=#b85450;" parent="1" vertex="1">
          <mxGeometry x="1143" y="416" width="92" height="56" as="geometry" />
        </mxCell>
        <mxCell id="HglV9qDlDRLHziCRikBF-206" value="(0,1)" style="text;html=1;align=center;verticalAlign=middle;resizable=0;points=[];autosize=1;strokeColor=none;fillColor=none;" parent="1" vertex="1">
          <mxGeometry x="1416" y="394" width="48" height="24" as="geometry" />
        </mxCell>
        <mxCell id="HglV9qDlDRLHziCRikBF-207" value="( 0,n)" style="text;html=1;align=center;verticalAlign=middle;resizable=0;points=[];autosize=1;strokeColor=none;fillColor=none;" parent="1" vertex="1">
          <mxGeometry x="1075" y="330" width="60" height="24" as="geometry" />
        </mxCell>
        <mxCell id="HglV9qDlDRLHziCRikBF-208" value="Pagata" style="text;html=1;align=center;verticalAlign=middle;resizable=0;points=[];autosize=1;fontStyle=1;horizontal=1;fontColor=#FF6666;" parent="1" vertex="1">
          <mxGeometry x="1152" y="501" width="60" height="24" as="geometry" />
        </mxCell>
        <mxCell id="HglV9qDlDRLHziCRikBF-209" value="Numero Carta" style="text;html=1;align=center;verticalAlign=middle;resizable=0;points=[];autosize=1;strokeColor=none;fillColor=none;" parent="1" vertex="1">
          <mxGeometry x="1248" y="237.75" width="96" height="24" as="geometry" />
        </mxCell>
        <mxCell id="HglV9qDlDRLHziCRikBF-210" value="Scadenza" style="text;html=1;align=center;verticalAlign=middle;resizable=0;points=[];autosize=1;strokeColor=none;fillColor=none;" parent="1" vertex="1">
          <mxGeometry x="1218" y="327" width="84" height="24" as="geometry" />
        </mxCell>
        <mxCell id="HglV9qDlDRLHziCRikBF-211" value="Inizio" style="text;html=1;align=center;verticalAlign=middle;resizable=0;points=[];autosize=1;strokeColor=none;fillColor=none;" parent="1" vertex="1">
          <mxGeometry x="1092.5" y="748" width="60" height="24" as="geometry" />
        </mxCell>
        <mxCell id="HglV9qDlDRLHziCRikBF-212" value="Fine" style="text;html=1;align=center;verticalAlign=middle;resizable=0;points=[];autosize=1;strokeColor=none;fillColor=none;" parent="1" vertex="1">
          <mxGeometry x="1098.5" y="772" width="48" height="24" as="geometry" />
        </mxCell>
        <mxCell id="HglV9qDlDRLHziCRikBF-213" value="" style="edgeStyle=none;orthogonalLoop=1;jettySize=auto;html=1;rounded=0;endArrow=oval;endFill=1;" parent="1" edge="1">
          <mxGeometry width="100" relative="1" as="geometry">
            <mxPoint x="1090" y="776" as="sourcePoint" />
            <mxPoint x="994" y="740" as="targetPoint" />
            <Array as="points">
              <mxPoint x="1090" y="740" />
              <mxPoint x="1042" y="740" />
            </Array>
          </mxGeometry>
        </mxCell>
        <mxCell id="HglV9qDlDRLHziCRikBF-214" value="Longitudine" style="text;html=1;align=center;verticalAlign=middle;resizable=0;points=[];autosize=1;strokeColor=none;fillColor=none;" parent="1" vertex="1">
          <mxGeometry x="1111.5" y="952" width="96" height="24" as="geometry" />
        </mxCell>
        <mxCell id="HglV9qDlDRLHziCRikBF-215" value="Identificatore" style="text;html=1;align=center;verticalAlign=middle;resizable=0;points=[];autosize=1;strokeColor=none;fillColor=none;" parent="1" vertex="1">
          <mxGeometry x="1116" y="969" width="96" height="24" as="geometry" />
        </mxCell>
        <mxCell id="HglV9qDlDRLHziCRikBF-216" value="Larghezza di Banda" style="text;html=1;align=center;verticalAlign=middle;resizable=0;points=[];autosize=1;strokeColor=none;fillColor=none;" parent="1" vertex="1">
          <mxGeometry x="1119" y="984" width="132" height="24" as="geometry" />
        </mxCell>
        <mxCell id="HglV9qDlDRLHziCRikBF-217" value="Banda attuale" style="text;html=1;align=center;verticalAlign=middle;resizable=0;points=[];autosize=1;strokeColor=none;fillColor=none;" parent="1" vertex="1">
          <mxGeometry x="833.75" y="959" width="96" height="24" as="geometry" />
        </mxCell>
        <mxCell id="HglV9qDlDRLHziCRikBF-218" value="Capacità Massima" style="text;html=1;align=center;verticalAlign=middle;resizable=0;points=[];autosize=1;strokeColor=none;fillColor=none;" parent="1" vertex="1">
          <mxGeometry x="1125" y="999" width="120" height="24" as="geometry" />
        </mxCell>
        <mxCell id="Rr8nrI_Sg17zaG7XF54k-14" style="edgeStyle=orthogonalEdgeStyle;rounded=0;orthogonalLoop=1;jettySize=auto;html=1;entryX=1;entryY=0.5;entryDx=0;entryDy=0;endArrow=none;endFill=0;" parent="1" source="HglV9qDlDRLHziCRikBF-221" target="HglV9qDlDRLHziCRikBF-354" edge="1">
          <mxGeometry relative="1" as="geometry" />
        </mxCell>
        <mxCell id="HglV9qDlDRLHziCRikBF-221" value="&lt;div&gt;Codifica&lt;br&gt;Audio&lt;br&gt;&lt;/div&gt;" style="rhombus;whiteSpace=wrap;html=1;fillColor=#d5e8d4;strokeColor=#82b366;" parent="1" vertex="1">
          <mxGeometry x="302" y="135.5" width="87" height="52.5" as="geometry" />
        </mxCell>
        <mxCell id="HglV9qDlDRLHziCRikBF-223" value="(1,1)" style="text;html=1;align=center;verticalAlign=middle;resizable=0;points=[];autosize=1;strokeColor=none;fillColor=none;" parent="1" vertex="1">
          <mxGeometry x="381" y="136.75" width="48" height="24" as="geometry" />
        </mxCell>
        <mxCell id="HglV9qDlDRLHziCRikBF-229" value="Qualità" style="text;html=1;align=center;verticalAlign=middle;resizable=0;points=[];autosize=1;strokeColor=none;fillColor=none;" parent="1" vertex="1">
          <mxGeometry x="180.00000000000003" y="272" width="60" height="24" as="geometry" />
        </mxCell>
        <mxCell id="HglV9qDlDRLHziCRikBF-243" value="Codice" style="text;html=1;align=center;verticalAlign=middle;resizable=0;points=[];autosize=1;strokeColor=none;fillColor=none;" parent="1" vertex="1">
          <mxGeometry x="445.75" y="67.5" width="60" height="24" as="geometry" />
        </mxCell>
        <mxCell id="HglV9qDlDRLHziCRikBF-244" value="Lunghezza" style="text;html=1;align=center;verticalAlign=middle;resizable=0;points=[];autosize=1;strokeColor=none;fillColor=none;" parent="1" vertex="1">
          <mxGeometry x="485.5" y="67.5" width="84" height="24" as="geometry" />
        </mxCell>
        <mxCell id="HglV9qDlDRLHziCRikBF-245" value="Dimensione" style="text;html=1;align=center;verticalAlign=middle;resizable=0;points=[];autosize=1;strokeColor=none;fillColor=none;" parent="1" vertex="1">
          <mxGeometry x="507" y="227" width="96" height="24" as="geometry" />
        </mxCell>
        <mxCell id="HglV9qDlDRLHziCRikBF-246" style="edgeStyle=orthogonalEdgeStyle;rounded=0;orthogonalLoop=1;jettySize=auto;html=1;endArrow=none;endFill=0;" parent="1" source="HglV9qDlDRLHziCRikBF-247" edge="1">
          <mxGeometry relative="1" as="geometry">
            <mxPoint x="766" y="164" as="targetPoint" />
          </mxGeometry>
        </mxCell>
        <mxCell id="HglV9qDlDRLHziCRikBF-247" value="Audio" style="rhombus;whiteSpace=wrap;html=1;fillColor=#d5e8d4;strokeColor=#82b366;" parent="1" vertex="1">
          <mxGeometry x="635" y="107.5" width="80" height="53.25" as="geometry" />
        </mxCell>
        <mxCell id="HglV9qDlDRLHziCRikBF-248" value="Sottotitolo" style="rhombus;whiteSpace=wrap;html=1;fillColor=#d5e8d4;strokeColor=#82b366;" parent="1" vertex="1">
          <mxGeometry x="635" y="166.5" width="80" height="44" as="geometry" />
        </mxCell>
        <mxCell id="HglV9qDlDRLHziCRikBF-249" style="edgeStyle=orthogonalEdgeStyle;rounded=0;orthogonalLoop=1;jettySize=auto;html=1;endArrow=oval;endFill=1;" parent="1" source="HglV9qDlDRLHziCRikBF-250" edge="1">
          <mxGeometry relative="1" as="geometry">
            <mxPoint x="802" y="104" as="targetPoint" />
          </mxGeometry>
        </mxCell>
        <mxCell id="HglV9qDlDRLHziCRikBF-250" value="Lingua" style="whiteSpace=wrap;html=1;fillColor=#d5e8d4;strokeColor=#82b366;" parent="1" vertex="1">
          <mxGeometry x="742" y="139.5" width="120" height="60" as="geometry" />
        </mxCell>
        <mxCell id="HglV9qDlDRLHziCRikBF-251" style="edgeStyle=orthogonalEdgeStyle;rounded=0;orthogonalLoop=1;jettySize=auto;html=1;entryX=-0.006;entryY=0.847;entryDx=0;entryDy=0;entryPerimeter=0;endArrow=none;endFill=0;" parent="1" source="HglV9qDlDRLHziCRikBF-248" target="HglV9qDlDRLHziCRikBF-250" edge="1">
          <mxGeometry relative="1" as="geometry" />
        </mxCell>
        <mxCell id="HglV9qDlDRLHziCRikBF-252" value="(0,n)" style="text;html=1;align=center;verticalAlign=middle;resizable=0;points=[];autosize=1;strokeColor=none;fillColor=none;" parent="1" vertex="1">
          <mxGeometry x="732" y="115.5" width="48" height="24" as="geometry" />
        </mxCell>
        <mxCell id="HglV9qDlDRLHziCRikBF-253" value="(0,n)" style="text;html=1;align=center;verticalAlign=middle;resizable=0;points=[];autosize=1;strokeColor=none;fillColor=none;" parent="1" vertex="1">
          <mxGeometry x="706" y="168.5" width="48" height="24" as="geometry" />
        </mxCell>
        <mxCell id="HglV9qDlDRLHziCRikBF-254" value="(0,n)" style="text;html=1;align=center;verticalAlign=middle;resizable=0;points=[];autosize=1;strokeColor=none;fillColor=none;" parent="1" vertex="1">
          <mxGeometry x="555" y="162" width="48" height="24" as="geometry" />
        </mxCell>
        <mxCell id="HglV9qDlDRLHziCRikBF-255" value="(1,1)" style="text;html=1;align=center;verticalAlign=middle;resizable=0;points=[];autosize=1;strokeColor=none;fillColor=none;" parent="1" vertex="1">
          <mxGeometry x="558" y="117" width="48" height="24" as="geometry" />
        </mxCell>
        <mxCell id="HglV9qDlDRLHziCRikBF-256" style="edgeStyle=orthogonalEdgeStyle;rounded=0;orthogonalLoop=1;jettySize=auto;html=1;" parent="1" source="HglV9qDlDRLHziCRikBF-258" edge="1">
          <mxGeometry relative="1" as="geometry">
            <mxPoint x="562" y="523.9999999999999" as="targetPoint" />
          </mxGeometry>
        </mxCell>
        <mxCell id="HglV9qDlDRLHziCRikBF-257" style="edgeStyle=orthogonalEdgeStyle;rounded=0;orthogonalLoop=1;jettySize=auto;html=1;endArrow=oval;endFill=0;" parent="1" source="HglV9qDlDRLHziCRikBF-258" edge="1">
          <mxGeometry relative="1" as="geometry">
            <mxPoint x="754" y="608" as="targetPoint" />
            <Array as="points">
              <mxPoint x="750" y="608" />
              <mxPoint x="750" y="609" />
              <mxPoint x="754" y="609" />
            </Array>
          </mxGeometry>
        </mxCell>
        <mxCell id="HglV9qDlDRLHziCRikBF-258" value="Critico" style="whiteSpace=wrap;html=1;fillColor=#fff2cc;strokeColor=#d6b656;" parent="1" vertex="1">
          <mxGeometry x="610" y="564" width="120" height="48" as="geometry" />
        </mxCell>
        <mxCell id="HglV9qDlDRLHziCRikBF-259" value="Recensione" style="rhombus;whiteSpace=wrap;html=1;fillColor=#fff2cc;strokeColor=#d6b656;" parent="1" vertex="1">
          <mxGeometry x="523.75" y="485" width="80" height="56" as="geometry" />
        </mxCell>
        <mxCell id="HglV9qDlDRLHziCRikBF-260" style="edgeStyle=orthogonalEdgeStyle;rounded=0;orthogonalLoop=1;jettySize=auto;html=1;entryX=0.834;entryY=0.986;entryDx=0;entryDy=0;entryPerimeter=0;endArrow=none;endFill=0;" parent="1" source="HglV9qDlDRLHziCRikBF-259" target="HglV9qDlDRLHziCRikBF-13" edge="1">
          <mxGeometry relative="1" as="geometry" />
        </mxCell>
        <mxCell id="HglV9qDlDRLHziCRikBF-261" value="(0,n)" style="text;html=1;align=center;verticalAlign=middle;resizable=0;points=[];autosize=1;strokeColor=none;fillColor=none;" parent="1" vertex="1">
          <mxGeometry x="507" y="442" width="48" height="24" as="geometry" />
        </mxCell>
        <mxCell id="HglV9qDlDRLHziCRikBF-262" value="(0,n)" style="text;html=1;align=center;verticalAlign=middle;resizable=0;points=[];autosize=1;strokeColor=none;fillColor=none;" parent="1" vertex="1">
          <mxGeometry x="569.5" y="564" width="48" height="24" as="geometry" />
        </mxCell>
        <mxCell id="HglV9qDlDRLHziCRikBF-263" value="Codice" style="text;html=1;align=center;verticalAlign=middle;resizable=0;points=[];autosize=1;strokeColor=none;fillColor=none;" parent="1" vertex="1">
          <mxGeometry x="754" y="564" width="60" height="24" as="geometry" />
        </mxCell>
        <mxCell id="HglV9qDlDRLHziCRikBF-264" style="edgeStyle=orthogonalEdgeStyle;rounded=0;orthogonalLoop=1;jettySize=auto;html=1;entryX=0.014;entryY=0.528;entryDx=0;entryDy=0;entryPerimeter=0;endArrow=oval;endFill=1;" parent="1" source="HglV9qDlDRLHziCRikBF-258" target="HglV9qDlDRLHziCRikBF-263" edge="1">
          <mxGeometry relative="1" as="geometry">
            <Array as="points">
              <mxPoint x="755" y="574" />
            </Array>
          </mxGeometry>
        </mxCell>
        <mxCell id="HglV9qDlDRLHziCRikBF-265" value="Nome" style="text;html=1;align=center;verticalAlign=middle;resizable=0;points=[];autosize=1;strokeColor=none;fillColor=none;" parent="1" vertex="1">
          <mxGeometry x="755" y="580" width="60" height="24" as="geometry" />
        </mxCell>
        <mxCell id="HglV9qDlDRLHziCRikBF-266" style="edgeStyle=orthogonalEdgeStyle;rounded=0;orthogonalLoop=1;jettySize=auto;html=1;entryX=0.017;entryY=0.595;entryDx=0;entryDy=0;entryPerimeter=0;endArrow=oval;endFill=0;" parent="1" source="HglV9qDlDRLHziCRikBF-258" target="HglV9qDlDRLHziCRikBF-265" edge="1">
          <mxGeometry relative="1" as="geometry">
            <Array as="points">
              <mxPoint x="755" y="594" />
            </Array>
          </mxGeometry>
        </mxCell>
        <mxCell id="HglV9qDlDRLHziCRikBF-267" value="Cognome" style="text;html=1;align=center;verticalAlign=middle;resizable=0;points=[];autosize=1;strokeColor=none;fillColor=none;" parent="1" vertex="1">
          <mxGeometry x="742" y="598" width="84" height="24" as="geometry" />
        </mxCell>
        <mxCell id="HglV9qDlDRLHziCRikBF-268" style="edgeStyle=orthogonalEdgeStyle;rounded=0;orthogonalLoop=1;jettySize=auto;html=1;entryX=0.474;entryY=1.038;entryDx=0;entryDy=0;entryPerimeter=0;exitX=1;exitY=0.5;exitDx=0;exitDy=0;endArrow=oval;endFill=0;" parent="1" source="HglV9qDlDRLHziCRikBF-259" edge="1">
          <mxGeometry relative="1" as="geometry">
            <mxPoint x="650.19" y="509.9119999999999" as="targetPoint" />
            <Array as="points">
              <mxPoint x="650" y="513" />
            </Array>
          </mxGeometry>
        </mxCell>
        <mxCell id="HglV9qDlDRLHziCRikBF-269" value="Data" style="text;html=1;align=center;verticalAlign=middle;resizable=0;points=[];autosize=1;strokeColor=none;fillColor=none;" parent="1" vertex="1">
          <mxGeometry x="573.75" y="455" width="48" height="24" as="geometry" />
        </mxCell>
        <mxCell id="HglV9qDlDRLHziCRikBF-270" value="Valore" style="text;html=1;align=center;verticalAlign=middle;resizable=0;points=[];autosize=1;strokeColor=none;fillColor=none;" parent="1" vertex="1">
          <mxGeometry x="640" y="497" width="60" height="24" as="geometry" />
        </mxCell>
        <mxCell id="HglV9qDlDRLHziCRikBF-271" style="edgeStyle=orthogonalEdgeStyle;rounded=0;orthogonalLoop=1;jettySize=auto;html=1;entryX=0.455;entryY=1.121;entryDx=0;entryDy=0;entryPerimeter=0;exitX=1;exitY=0;exitDx=0;exitDy=0;endArrow=oval;endFill=0;" parent="1" edge="1">
          <mxGeometry relative="1" as="geometry">
            <mxPoint x="582.75" y="500" as="sourcePoint" />
            <mxPoint x="594.5899999999997" y="482.904" as="targetPoint" />
          </mxGeometry>
        </mxCell>
        <mxCell id="HglV9qDlDRLHziCRikBF-272" value="Nome" style="text;html=1;align=center;verticalAlign=middle;resizable=0;points=[];autosize=1;strokeColor=none;fillColor=none;" parent="1" vertex="1">
          <mxGeometry x="775" y="83.5" width="60" height="24" as="geometry" />
        </mxCell>
        <mxCell id="HglV9qDlDRLHziCRikBF-273" style="edgeStyle=orthogonalEdgeStyle;rounded=0;orthogonalLoop=1;jettySize=auto;html=1;endArrow=oval;endFill=0;" parent="1" edge="1">
          <mxGeometry relative="1" as="geometry">
            <mxPoint x="1533" y="464" as="sourcePoint" />
            <mxPoint x="1533" y="491" as="targetPoint" />
          </mxGeometry>
        </mxCell>
        <mxCell id="HglV9qDlDRLHziCRikBF-275" value="Latitudine" style="text;html=1;align=center;verticalAlign=middle;resizable=0;points=[];autosize=1;strokeColor=none;fillColor=none;" parent="1" vertex="1">
          <mxGeometry x="839.75" y="984" width="84" height="24" as="geometry" />
        </mxCell>
        <mxCell id="HglV9qDlDRLHziCRikBF-281" value="(1,n)" style="text;html=1;align=center;verticalAlign=middle;resizable=0;points=[];autosize=1;strokeColor=none;fillColor=none;" parent="1" vertex="1">
          <mxGeometry x="444" y="359" width="50" height="30" as="geometry" />
        </mxCell>
        <mxCell id="HglV9qDlDRLHziCRikBF-299" value="(0,n)" style="text;html=1;align=center;verticalAlign=middle;resizable=0;points=[];autosize=1;strokeColor=none;fillColor=none;" parent="1" vertex="1">
          <mxGeometry x="523.75" y="108" width="48" height="24" as="geometry" />
        </mxCell>
        <mxCell id="HglV9qDlDRLHziCRikBF-309" value="Id" style="text;html=1;align=center;verticalAlign=middle;resizable=0;points=[];autosize=1;strokeColor=none;fillColor=none;" parent="1" vertex="1">
          <mxGeometry x="1394" y="617" width="36" height="24" as="geometry" />
        </mxCell>
        <mxCell id="HglV9qDlDRLHziCRikBF-312" style="edgeStyle=orthogonalEdgeStyle;rounded=0;orthogonalLoop=1;jettySize=auto;html=1;endArrow=oval;endFill=1;" parent="1" source="HglV9qDlDRLHziCRikBF-67" edge="1">
          <mxGeometry relative="1" as="geometry">
            <Array as="points">
              <mxPoint x="740" y="308" />
              <mxPoint x="780" y="308" />
            </Array>
            <mxPoint x="780" y="310" as="targetPoint" />
          </mxGeometry>
        </mxCell>
        <mxCell id="HglV9qDlDRLHziCRikBF-313" style="edgeStyle=orthogonalEdgeStyle;rounded=0;orthogonalLoop=1;jettySize=auto;html=1;endArrow=none;endFill=0;" parent="1" source="HglV9qDlDRLHziCRikBF-314" edge="1">
          <mxGeometry relative="1" as="geometry">
            <mxPoint x="754" y="269.2499999999999" as="targetPoint" />
          </mxGeometry>
        </mxCell>
        <mxCell id="HglV9qDlDRLHziCRikBF-314" value="Selezione" style="rhombus;whiteSpace=wrap;html=1;fillColor=#f8cecc;strokeColor=#b85450;" parent="1" vertex="1">
          <mxGeometry x="826" y="248" width="76.5" height="42.5" as="geometry" />
        </mxCell>
        <mxCell id="HglV9qDlDRLHziCRikBF-315" style="edgeStyle=orthogonalEdgeStyle;rounded=0;orthogonalLoop=1;jettySize=auto;html=1;endArrow=oval;endFill=1;" parent="1" source="HglV9qDlDRLHziCRikBF-316" edge="1">
          <mxGeometry relative="1" as="geometry">
            <mxPoint x="610" y="265.9999999999999" as="targetPoint" />
          </mxGeometry>
        </mxCell>
        <mxCell id="HglV9qDlDRLHziCRikBF-316" value="Preferenza" style="whiteSpace=wrap;html=1;fillColor=#f8cecc;strokeColor=#b85450;" parent="1" vertex="1">
          <mxGeometry x="640" y="248" width="120" height="36" as="geometry" />
        </mxCell>
        <mxCell id="HglV9qDlDRLHziCRikBF-317" value="(0,n)" style="text;html=1;align=center;verticalAlign=middle;resizable=0;points=[];autosize=1;strokeColor=none;fillColor=none;" parent="1" vertex="1">
          <mxGeometry x="930" y="273" width="48" height="24" as="geometry" />
        </mxCell>
        <mxCell id="HglV9qDlDRLHziCRikBF-318" value="(0,n)" style="text;html=1;align=center;verticalAlign=middle;resizable=0;points=[];autosize=1;strokeColor=none;fillColor=none;" parent="1" vertex="1">
          <mxGeometry x="757" y="241.25" width="48" height="24" as="geometry" />
        </mxCell>
        <mxCell id="HglV9qDlDRLHziCRikBF-319" value="Nome" style="text;html=1;align=center;verticalAlign=middle;resizable=0;points=[];autosize=1;strokeColor=none;fillColor=none;" parent="1" vertex="1">
          <mxGeometry x="558" y="254" width="60" height="24" as="geometry" />
        </mxCell>
        <mxCell id="HglV9qDlDRLHziCRikBF-336" value="(0,n)" style="text;html=1;align=center;verticalAlign=middle;resizable=0;points=[];autosize=1;strokeColor=none;fillColor=none;" parent="1" vertex="1">
          <mxGeometry x="1370" y="189" width="50" height="30" as="geometry" />
        </mxCell>
        <mxCell id="HglV9qDlDRLHziCRikBF-337" value="GenereVietato" style="text;html=1;align=center;verticalAlign=middle;resizable=0;points=[];autosize=1;strokeColor=none;fillColor=none;" parent="1" vertex="1">
          <mxGeometry x="1365" y="211.25" width="100" height="30" as="geometry" />
        </mxCell>
        <mxCell id="HglV9qDlDRLHziCRikBF-339" value="Genere" style="text;html=1;align=center;verticalAlign=middle;resizable=0;points=[];autosize=1;strokeColor=none;fillColor=none;" parent="1" vertex="1">
          <mxGeometry x="455" y="327.75" width="60" height="30" as="geometry" />
        </mxCell>
        <mxCell id="HglV9qDlDRLHziCRikBF-355" style="edgeStyle=orthogonalEdgeStyle;rounded=0;orthogonalLoop=1;jettySize=auto;html=1;endArrow=none;endFill=0;" parent="1" source="HglV9qDlDRLHziCRikBF-352" edge="1">
          <mxGeometry relative="1" as="geometry">
            <mxPoint x="170" y="150" as="targetPoint" />
            <Array as="points">
              <mxPoint x="70" y="150" />
            </Array>
          </mxGeometry>
        </mxCell>
        <mxCell id="HglV9qDlDRLHziCRikBF-359" style="edgeStyle=orthogonalEdgeStyle;rounded=0;orthogonalLoop=1;jettySize=auto;html=1;exitX=0.25;exitY=0;exitDx=0;exitDy=0;endArrow=oval;endFill=0;" parent="1" source="HglV9qDlDRLHziCRikBF-352" target="HglV9qDlDRLHziCRikBF-360" edge="1">
          <mxGeometry relative="1" as="geometry">
            <mxPoint x="40" y="280" as="targetPoint" />
          </mxGeometry>
        </mxCell>
        <mxCell id="Rr8nrI_Sg17zaG7XF54k-5" style="edgeStyle=orthogonalEdgeStyle;rounded=0;orthogonalLoop=1;jettySize=auto;html=1;endArrow=oval;endFill=0;exitX=0.096;exitY=1.016;exitDx=0;exitDy=0;exitPerimeter=0;" parent="1" source="HglV9qDlDRLHziCRikBF-352" edge="1">
          <mxGeometry relative="1" as="geometry">
            <mxPoint x="30" y="150" as="targetPoint" />
          </mxGeometry>
        </mxCell>
        <mxCell id="HglV9qDlDRLHziCRikBF-352" value="Formato Video" style="whiteSpace=wrap;html=1;fillColor=#d5e8d4;strokeColor=#82b366;" parent="1" vertex="1">
          <mxGeometry x="18.12" y="80.5" width="120" height="41" as="geometry" />
        </mxCell>
        <mxCell id="HglV9qDlDRLHziCRikBF-356" style="edgeStyle=orthogonalEdgeStyle;rounded=0;orthogonalLoop=1;jettySize=auto;html=1;endArrow=none;endFill=0;" parent="1" source="HglV9qDlDRLHziCRikBF-354" edge="1">
          <mxGeometry relative="1" as="geometry">
            <mxPoint x="170" y="150" as="targetPoint" />
            <Array as="points">
              <mxPoint x="270" y="150" />
            </Array>
          </mxGeometry>
        </mxCell>
        <mxCell id="HglV9qDlDRLHziCRikBF-354" value="Formato Audio" style="whiteSpace=wrap;html=1;fillColor=#d5e8d4;strokeColor=#82b366;" parent="1" vertex="1">
          <mxGeometry x="198.12" y="83.5" width="130" height="39" as="geometry" />
        </mxCell>
        <mxCell id="HglV9qDlDRLHziCRikBF-358" value="" style="shape=flexArrow;endArrow=classic;html=1;rounded=0;entryX=0.5;entryY=0;entryDx=0;entryDy=0;strokeColor=default;fillColor=#000000;" parent="1" target="HglV9qDlDRLHziCRikBF-57" edge="1">
          <mxGeometry width="50" height="50" relative="1" as="geometry">
            <mxPoint x="168" y="150" as="sourcePoint" />
            <mxPoint x="180" y="110" as="targetPoint" />
          </mxGeometry>
        </mxCell>
        <mxCell id="HglV9qDlDRLHziCRikBF-360" value="AspectRatio" style="text;html=1;align=center;verticalAlign=middle;resizable=0;points=[];autosize=1;strokeColor=none;fillColor=none;" parent="1" vertex="1">
          <mxGeometry x="1.7763568394002505e-15" y="20" width="90" height="30" as="geometry" />
        </mxCell>
        <mxCell id="Rr8nrI_Sg17zaG7XF54k-6" value="Risoluzione" style="text;html=1;align=center;verticalAlign=middle;resizable=0;points=[];autosize=1;strokeColor=none;fillColor=none;" parent="1" vertex="1">
          <mxGeometry x="-5" y="148" width="90" height="30" as="geometry" />
        </mxCell>
        <mxCell id="Rr8nrI_Sg17zaG7XF54k-7" style="edgeStyle=orthogonalEdgeStyle;rounded=0;orthogonalLoop=1;jettySize=auto;html=1;entryX=0.522;entryY=0.042;entryDx=0;entryDy=0;entryPerimeter=0;exitX=0.9;exitY=1.011;exitDx=0;exitDy=0;exitPerimeter=0;endArrow=oval;endFill=0;" parent="1" source="HglV9qDlDRLHziCRikBF-57" target="HglV9qDlDRLHziCRikBF-229" edge="1">
          <mxGeometry relative="1" as="geometry" />
        </mxCell>
        <mxCell id="Rr8nrI_Sg17zaG7XF54k-9" value="Famiglia" style="text;html=1;align=center;verticalAlign=middle;resizable=0;points=[];autosize=1;strokeColor=none;fillColor=none;" parent="1" vertex="1">
          <mxGeometry x="128.12" y="269" width="70" height="30" as="geometry" />
        </mxCell>
        <mxCell id="Rr8nrI_Sg17zaG7XF54k-11" value="BitRate" style="text;html=1;align=center;verticalAlign=middle;resizable=0;points=[];autosize=1;strokeColor=none;fillColor=none;" parent="1" vertex="1">
          <mxGeometry x="25" y="219" width="60" height="30" as="geometry" />
        </mxCell>
        <mxCell id="Rr8nrI_Sg17zaG7XF54k-13" value="Codice" style="text;html=1;align=center;verticalAlign=middle;resizable=0;points=[];autosize=1;strokeColor=none;fillColor=none;" parent="1" vertex="1">
          <mxGeometry x="250" y="218" width="60" height="30" as="geometry" />
        </mxCell>
        <mxCell id="Rr8nrI_Sg17zaG7XF54k-15" value="(0,n)" style="text;html=1;align=center;verticalAlign=middle;resizable=0;points=[];autosize=1;strokeColor=none;fillColor=none;" parent="1" vertex="1">
          <mxGeometry x="325" y="78" width="50" height="30" as="geometry" />
        </mxCell>
        <mxCell id="Rr8nrI_Sg17zaG7XF54k-18" value="Codifica Video" style="rhombus;whiteSpace=wrap;html=1;fillColor=#d5e8d4;strokeColor=#82b366;" parent="1" vertex="1">
          <mxGeometry x="230" y="20" width="80" height="50" as="geometry" />
        </mxCell>
        <mxCell id="Rr8nrI_Sg17zaG7XF54k-19" style="edgeStyle=orthogonalEdgeStyle;rounded=0;orthogonalLoop=1;jettySize=auto;html=1;entryX=0.798;entryY=0.061;entryDx=0;entryDy=0;entryPerimeter=0;endArrow=none;endFill=0;" parent="1" source="Rr8nrI_Sg17zaG7XF54k-18" target="HglV9qDlDRLHziCRikBF-352" edge="1">
          <mxGeometry relative="1" as="geometry" />
        </mxCell>
        <mxCell id="Rr8nrI_Sg17zaG7XF54k-25" style="edgeStyle=orthogonalEdgeStyle;rounded=0;orthogonalLoop=1;jettySize=auto;html=1;endArrow=oval;endFill=1;" parent="1" edge="1">
          <mxGeometry relative="1" as="geometry">
            <mxPoint x="930" y="110" as="targetPoint" />
            <mxPoint x="930" y="92" as="sourcePoint" />
          </mxGeometry>
        </mxCell>
        <mxCell id="Rr8nrI_Sg17zaG7XF54k-27" style="edgeStyle=orthogonalEdgeStyle;rounded=0;orthogonalLoop=1;jettySize=auto;html=1;endArrow=oval;endFill=0;" parent="1" source="Rr8nrI_Sg17zaG7XF54k-20" edge="1">
          <mxGeometry relative="1" as="geometry">
            <mxPoint x="980" y="110" as="targetPoint" />
          </mxGeometry>
        </mxCell>
        <mxCell id="Rr8nrI_Sg17zaG7XF54k-29" style="edgeStyle=orthogonalEdgeStyle;rounded=0;orthogonalLoop=1;jettySize=auto;html=1;exitX=0.907;exitY=1.05;exitDx=0;exitDy=0;exitPerimeter=0;endArrow=oval;endFill=0;" parent="1" source="Rr8nrI_Sg17zaG7XF54k-20" edge="1">
          <mxGeometry relative="1" as="geometry">
            <mxPoint x="1030" y="110" as="targetPoint" />
          </mxGeometry>
        </mxCell>
        <mxCell id="Rr8nrI_Sg17zaG7XF54k-31" style="edgeStyle=orthogonalEdgeStyle;rounded=0;orthogonalLoop=1;jettySize=auto;html=1;exitX=0.997;exitY=0.161;exitDx=0;exitDy=0;exitPerimeter=0;endArrow=oval;endFill=0;" parent="1" source="Rr8nrI_Sg17zaG7XF54k-20" edge="1">
          <mxGeometry relative="1" as="geometry">
            <mxPoint x="1070" y="40" as="targetPoint" />
          </mxGeometry>
        </mxCell>
        <mxCell id="Rr8nrI_Sg17zaG7XF54k-33" style="edgeStyle=orthogonalEdgeStyle;rounded=0;orthogonalLoop=1;jettySize=auto;html=1;exitX=0.983;exitY=0.842;exitDx=0;exitDy=0;exitPerimeter=0;endArrow=oval;endFill=0;" parent="1" source="Rr8nrI_Sg17zaG7XF54k-20" edge="1">
          <mxGeometry relative="1" as="geometry">
            <mxPoint x="1070" y="80" as="targetPoint" />
            <Array as="points">
              <mxPoint x="1054" y="81" />
            </Array>
          </mxGeometry>
        </mxCell>
        <mxCell id="Rr8nrI_Sg17zaG7XF54k-20" value="Area Geografica" style="whiteSpace=wrap;html=1;fillColor=#f8cecc;strokeColor=#b85450;" parent="1" vertex="1">
          <mxGeometry x="920" y="30" width="120" height="60" as="geometry" />
        </mxCell>
        <mxCell id="Rr8nrI_Sg17zaG7XF54k-21" value="Restrizione Abbonamento" style="rhombus;whiteSpace=wrap;html=1;fillColor=#f8cecc;strokeColor=#b85450;" parent="1" vertex="1">
          <mxGeometry x="1152.5" y="30" width="107.5" height="60" as="geometry" />
        </mxCell>
        <mxCell id="Rr8nrI_Sg17zaG7XF54k-24" style="edgeStyle=orthogonalEdgeStyle;rounded=0;orthogonalLoop=1;jettySize=auto;html=1;entryX=0;entryY=0.5;entryDx=0;entryDy=0;endArrow=none;endFill=0;" parent="1" source="Rr8nrI_Sg17zaG7XF54k-23" target="Rr8nrI_Sg17zaG7XF54k-20" edge="1">
          <mxGeometry relative="1" as="geometry" />
        </mxCell>
        <mxCell id="Rr8nrI_Sg17zaG7XF54k-23" value="Restrizione Formato" style="rhombus;whiteSpace=wrap;html=1;fillColor=#d5e8d4;strokeColor=#82b366;" parent="1" vertex="1">
          <mxGeometry x="655" y="40" width="90" height="60" as="geometry" />
        </mxCell>
        <mxCell id="Rr8nrI_Sg17zaG7XF54k-26" value="Nome" style="text;html=1;align=center;verticalAlign=middle;resizable=0;points=[];autosize=1;strokeColor=none;fillColor=none;" parent="1" vertex="1">
          <mxGeometry x="902.5" y="108" width="60" height="30" as="geometry" />
        </mxCell>
        <mxCell id="Rr8nrI_Sg17zaG7XF54k-28" value="InizioIP" style="text;html=1;align=center;verticalAlign=middle;resizable=0;points=[];autosize=1;strokeColor=none;fillColor=none;" parent="1" vertex="1">
          <mxGeometry x="950" y="108" width="60" height="30" as="geometry" />
        </mxCell>
        <mxCell id="Rr8nrI_Sg17zaG7XF54k-30" value="FineIp" style="text;html=1;align=center;verticalAlign=middle;resizable=0;points=[];autosize=1;strokeColor=none;fillColor=none;" parent="1" vertex="1">
          <mxGeometry x="1004" y="105" width="60" height="30" as="geometry" />
        </mxCell>
        <mxCell id="Rr8nrI_Sg17zaG7XF54k-32" value="Latitudine" style="text;html=1;align=center;verticalAlign=middle;resizable=0;points=[];autosize=1;strokeColor=none;fillColor=none;" parent="1" vertex="1">
          <mxGeometry x="1060" y="20" width="80" height="30" as="geometry" />
        </mxCell>
        <mxCell id="Rr8nrI_Sg17zaG7XF54k-34" value="Longitudine" style="text;html=1;align=center;verticalAlign=middle;resizable=0;points=[];autosize=1;strokeColor=none;fillColor=none;" parent="1" vertex="1">
          <mxGeometry x="1062.5" y="67.5" width="90" height="30" as="geometry" />
        </mxCell>
        <mxCell id="Rr8nrI_Sg17zaG7XF54k-36" value="(1,1)" style="text;html=1;align=center;verticalAlign=middle;resizable=0;points=[];autosize=1;strokeColor=none;fillColor=none;" parent="1" vertex="1">
          <mxGeometry x="395" y="98" width="50" height="30" as="geometry" />
        </mxCell>
        <mxCell id="Rr8nrI_Sg17zaG7XF54k-37" value="(0,n)" style="text;html=1;align=center;verticalAlign=middle;resizable=0;points=[];autosize=1;strokeColor=none;fillColor=none;" parent="1" vertex="1">
          <mxGeometry x="105.94" y="55" width="50" height="30" as="geometry" />
        </mxCell>
        <mxCell id="v24EFPV0wYHPeH2oUftJ-2" value="ID" style="text;html=1;align=center;verticalAlign=middle;resizable=0;points=[];autosize=1;strokeColor=none;fillColor=none;" vertex="1" parent="1">
          <mxGeometry x="1470" y="358" width="40" height="30" as="geometry" />
        </mxCell>
        <mxCell id="v24EFPV0wYHPeH2oUftJ-4" value="Data" style="text;html=1;align=center;verticalAlign=middle;resizable=0;points=[];autosize=1;strokeColor=none;fillColor=none;" vertex="1" parent="1">
          <mxGeometry x="625" y="298" width="50" height="30" as="geometry" />
        </mxCell>
        <mxCell id="v24EFPV0wYHPeH2oUftJ-6" value="DataVersione" style="text;html=1;align=center;verticalAlign=middle;resizable=0;points=[];autosize=1;strokeColor=none;fillColor=none;" vertex="1" parent="1">
          <mxGeometry x="50" y="272" width="100" height="30" as="geometry" />
        </mxCell>
      </root>
    </mxGraphModel>
  </diagram>
</mxfile>
